<?xml version="1.0" encoding="UTF-8" standalone="no"?>
<!DOCTYPE svg PUBLIC "-//W3C//DTD SVG 1.1//EN"
 "http://www.w3.org/Graphics/SVG/1.1/DTD/svg11.dtd">
<!-- Generated by graphviz version 2.43.0 (0)
 -->
<!-- Title: adapter Pages: 1 -->
<svg width="581pt" height="311pt"
 viewBox="0.00 0.00 581.34 311.00" xmlns="http://www.w3.org/2000/svg" xmlns:xlink="http://www.w3.org/1999/xlink">
<g id="graph0" class="graph" transform="scale(1 1) rotate(0) translate(4 307)">
<title>adapter</title>
<g id="clust1" class="cluster">
<title>cluster_fmt</title>
<polygon fill="transparent" stroke="#9aa3ab" stroke-dasharray="5,2" points="4,-8 4,-295 95,-295 95,-8 4,-8"/>
<text text-anchor="middle" x="49.5" y="-283" font-family="Arial" font-size="10.00">ontology sources</text>
</g>
<!-- obo -->
<g id="node1" class="node">
<title>obo</title>
<path fill="#e3eef2" stroke="#5f6b78" stroke-width="1.2" d="M64,-268C64,-268 34,-268 34,-268 28,-268 22,-262 22,-256 22,-256 22,-244 22,-244 22,-238 28,-232 34,-232 34,-232 64,-232 64,-232 70,-232 76,-238 76,-244 76,-244 76,-256 76,-256 76,-262 70,-268 64,-268"/>
<text text-anchor="middle" x="49" y="-247.2" font-family="Arial" font-size="11.00">OBO</text>
</g>
<!-- mount -->
<g id="node6" class="node">
<title>mount</title>
<path fill="#fbf0e2" stroke="#5f6b78" stroke-width="1.4" d="M258.77,-149.02C258.77,-149.02 241.82,-161.24 241.82,-161.24 236.95,-164.75 226.09,-168.26 220.09,-168.26 220.09,-168.26 171.25,-168.26 171.25,-168.26 165.25,-168.26 154.38,-164.75 149.52,-161.24 149.52,-161.24 132.57,-149.02 132.57,-149.02 127.7,-145.51 127.7,-138.49 132.57,-134.98 132.57,-134.98 149.52,-122.76 149.52,-122.76 154.38,-119.25 165.25,-115.74 171.25,-115.74 171.25,-115.74 220.09,-115.74 220.09,-115.74 226.09,-115.74 236.95,-119.25 241.82,-122.76 241.82,-122.76 258.77,-134.98 258.77,-134.98 263.64,-138.49 263.64,-145.51 258.77,-149.02"/>
<text text-anchor="middle" x="195.67" y="-145.2" font-family="Arial" font-size="11.00">universal</text>
<text text-anchor="middle" x="195.67" y="-133.2" font-family="Arial" font-size="11.00">loader + mount</text>
</g>
<!-- obo&#45;&gt;mount -->
<g id="edge1" class="edge">
<title>obo&#45;&gt;mount</title>
<path fill="none" stroke="#2e6b86" stroke-width="1.2" d="M76.1,-235.19C82.4,-231.39 89.03,-227.18 95,-223 117.01,-207.57 140.38,-188.72 158.96,-173.08"/>
<polygon fill="#2e6b86" stroke="#2e6b86" stroke-width="1.2" points="160.81,-174.73 164.57,-168.34 157.64,-170.99 160.81,-174.73"/>
</g>
<!-- owl -->
<g id="node2" class="node">
<title>owl</title>
<path fill="#e3eef2" stroke="#5f6b78" stroke-width="1.2" d="M69,-214C69,-214 29,-214 29,-214 23,-214 17,-208 17,-202 17,-202 17,-190 17,-190 17,-184 23,-178 29,-178 29,-178 69,-178 69,-178 75,-178 81,-184 81,-190 81,-190 81,-202 81,-202 81,-208 75,-214 69,-214"/>
<text text-anchor="middle" x="49" y="-193.2" font-family="Arial" font-size="11.00">OWL/TTL</text>
</g>
<!-- owl&#45;&gt;mount -->
<g id="edge2" class="edge">
<title>owl&#45;&gt;mount</title>
<path fill="none" stroke="#2e6b86" stroke-width="1.2" d="M81.03,-184.42C98.34,-177.96 120.39,-169.73 140.45,-162.24"/>
<polygon fill="#2e6b86" stroke="#2e6b86" stroke-width="1.2" points="141.47,-164.47 147.17,-159.73 139.75,-159.88 141.47,-164.47"/>
</g>
<!-- stix -->
<g id="node3" class="node">
<title>stix</title>
<path fill="#e3eef2" stroke="#5f6b78" stroke-width="1.2" d="M64,-160C64,-160 34,-160 34,-160 28,-160 22,-154 22,-148 22,-148 22,-136 22,-136 22,-130 28,-124 34,-124 34,-124 64,-124 64,-124 70,-124 76,-130 76,-136 76,-136 76,-148 76,-148 76,-154 70,-160 64,-160"/>
<text text-anchor="middle" x="49" y="-139.2" font-family="Arial" font-size="11.00">STIX</text>
</g>
<!-- stix&#45;&gt;mount -->
<g id="edge3" class="edge">
<title>stix&#45;&gt;mount</title>
<path fill="none" stroke="#2e6b86" stroke-width="1.2" d="M76.2,-142C87.53,-142 101.46,-142 115.74,-142"/>
<polygon fill="#2e6b86" stroke="#2e6b86" stroke-width="1.2" points="115.77,-144.45 122.77,-142 115.77,-139.55 115.77,-144.45"/>
</g>
<!-- cpc -->
<g id="node4" class="node">
<title>cpc</title>
<path fill="#e3eef2" stroke="#5f6b78" stroke-width="1.2" d="M70,-106C70,-106 28,-106 28,-106 22,-106 16,-100 16,-94 16,-94 16,-82 16,-82 16,-76 22,-70 28,-70 28,-70 70,-70 70,-70 76,-70 82,-76 82,-82 82,-82 82,-94 82,-94 82,-100 76,-106 70,-106"/>
<text text-anchor="middle" x="49" y="-85.2" font-family="Arial" font-size="11.00">CPC XML</text>
</g>
<!-- cpc&#45;&gt;mount -->
<g id="edge4" class="edge">
<title>cpc&#45;&gt;mount</title>
<path fill="none" stroke="#2e6b86" stroke-width="1.2" d="M82.11,-99.98C99.31,-106.41 120.96,-114.49 140.67,-121.84"/>
<polygon fill="#2e6b86" stroke="#2e6b86" stroke-width="1.2" points="139.85,-124.15 147.27,-124.31 141.57,-119.56 139.85,-124.15"/>
</g>
<!-- xbrl -->
<g id="node5" class="node">
<title>xbrl</title>
<path fill="#e3eef2" stroke="#5f6b78" stroke-width="1.2" d="M64,-52C64,-52 34,-52 34,-52 28,-52 22,-46 22,-40 22,-40 22,-28 22,-28 22,-22 28,-16 34,-16 34,-16 64,-16 64,-16 70,-16 76,-22 76,-28 76,-28 76,-40 76,-40 76,-46 70,-52 64,-52"/>
<text text-anchor="middle" x="49" y="-31.2" font-family="Arial" font-size="11.00">XBRL</text>
</g>
<!-- xbrl&#45;&gt;mount -->
<g id="edge5" class="edge">
<title>xbrl&#45;&gt;mount</title>
<path fill="none" stroke="#2e6b86" stroke-width="1.2" d="M76.1,-48.81C82.4,-52.61 89.03,-56.82 95,-61 117.01,-76.43 140.38,-95.28 158.96,-110.92"/>
<polygon fill="#2e6b86" stroke="#2e6b86" stroke-width="1.2" points="157.64,-113.01 164.57,-115.66 160.81,-109.27 157.64,-113.01"/>
</g>
<!-- norm -->
<g id="node7" class="node">
<title>norm</title>
<path fill="#e6f0e6" stroke="#5f6b78" stroke-width="1.2" d="M432.34,-160C432.34,-160 316.34,-160 316.34,-160 310.34,-160 304.34,-154 304.34,-148 304.34,-148 304.34,-136 304.34,-136 304.34,-130 310.34,-124 316.34,-124 316.34,-124 432.34,-124 432.34,-124 438.34,-124 444.34,-130 444.34,-136 444.34,-136 444.34,-148 444.34,-148 444.34,-154 438.34,-160 432.34,-160"/>
<text text-anchor="middle" x="374.34" y="-145.2" font-family="Arial" font-size="11.00">normalized graph</text>
<text text-anchor="middle" x="374.34" y="-133.2" font-family="Arial" font-size="11.00"> is&#45;a lattice + higher&#45;order</text>
</g>
<!-- mount&#45;&gt;norm -->
<g id="edge6" class="edge">
<title>mount&#45;&gt;norm</title>
<path fill="none" stroke="#2e6b86" stroke-width="1.2" d="M268.53,-142C277.89,-142 287.51,-142 296.94,-142"/>
<polygon fill="#2e6b86" stroke="#2e6b86" stroke-width="1.2" points="297.11,-144.45 304.11,-142 297.11,-139.55 297.11,-144.45"/>
</g>
<!-- route -->
<g id="node8" class="node">
<title>route</title>
<path fill="#ece8f4" stroke="#5f6b78" stroke-width="1.2" d="M561.34,-160C561.34,-160 492.34,-160 492.34,-160 486.34,-160 480.34,-154 480.34,-148 480.34,-148 480.34,-136 480.34,-136 480.34,-130 486.34,-124 492.34,-124 492.34,-124 561.34,-124 561.34,-124 567.34,-124 573.34,-130 573.34,-136 573.34,-136 573.34,-148 573.34,-148 573.34,-154 567.34,-160 561.34,-160"/>
<text text-anchor="middle" x="526.84" y="-145.2" font-family="Arial" font-size="11.00">registry</text>
<text text-anchor="middle" x="526.84" y="-133.2" font-family="Arial" font-size="11.00">+ domain router</text>
</g>
<!-- norm&#45;&gt;route -->
<g id="edge7" class="edge">
<title>norm&#45;&gt;route</title>
<path fill="none" stroke="#2e6b86" stroke-width="1.2" d="M444.42,-142C453.93,-142 463.58,-142 472.74,-142"/>
<polygon fill="#2e6b86" stroke="#2e6b86" stroke-width="1.2" points="472.97,-144.45 479.97,-142 472.97,-139.55 472.97,-144.45"/>
</g>
</g>
</svg>
