<?xml version="1.0" encoding="utf-8" standalone="no"?>
<!DOCTYPE svg PUBLIC "-//W3C//DTD SVG 1.1//EN"
  "http://www.w3.org/Graphics/SVG/1.1/DTD/svg11.dtd">
<svg xmlns:xlink="http://www.w3.org/1999/xlink" width="516.674492pt" height="229.874pt" viewBox="0 0 516.674492 229.874" xmlns="http://www.w3.org/2000/svg" version="1.1">
 <metadata>
  <rdf:RDF xmlns:dc="http://purl.org/dc/elements/1.1/" xmlns:cc="http://creativecommons.org/ns#" xmlns:rdf="http://www.w3.org/1999/02/22-rdf-syntax-ns#">
   <cc:Work>
    <dc:type rdf:resource="http://purl.org/dc/dcmitype/StillImage"/>
    <dc:date>2026-06-13T21:24:15.849730</dc:date>
    <dc:format>image/svg+xml</dc:format>
    <dc:creator>
     <cc:Agent>
      <dc:title>Matplotlib v3.9.2, https://matplotlib.org/</dc:title>
     </cc:Agent>
    </dc:creator>
   </cc:Work>
  </rdf:RDF>
 </metadata>
 <defs>
  <style type="text/css">*{stroke-linejoin: round; stroke-linecap: butt}</style>
 </defs>
 <g id="figure_1">
  <g id="patch_1">
   <path d="M 0 229.874 
L 516.674492 229.874 
L 516.674492 -0 
L 0 -0 
z
" style="fill: #ffffff"/>
  </g>
  <g id="axes_1">
   <g id="patch_2">
    <path d="M 34.569063 170.886 
L 247.630303 170.886 
L 247.630303 19.02375 
L 34.569063 19.02375 
z
" style="fill: #ffffff"/>
   </g>
   <g id="patch_3">
    <path d="M 44.253664 170.886 
L 49.745624 170.886 
L 49.745624 168.166555 
L 44.253664 168.166555 
z
" clip-path="url(#pe0eb2c83d3)" style="fill: #2e8aa6; stroke: #ffffff; stroke-width: 0.3; stroke-linejoin: miter"/>
   </g>
   <g id="patch_4">
    <path d="M 84.438734 170.886 
L 89.930694 170.886 
L 89.930694 154.303637 
L 84.438734 154.303637 
z
" clip-path="url(#pe0eb2c83d3)" style="fill: #2e8aa6; stroke: #ffffff; stroke-width: 0.3; stroke-linejoin: miter"/>
   </g>
   <g id="patch_5">
    <path d="M 124.623804 170.886 
L 130.115764 170.886 
L 130.115764 88.021072 
L 124.623804 88.021072 
z
" clip-path="url(#pe0eb2c83d3)" style="fill: #2e8aa6; stroke: #ffffff; stroke-width: 0.3; stroke-linejoin: miter"/>
   </g>
   <g id="patch_6">
    <path d="M 164.808874 170.886 
L 170.300833 170.886 
L 170.300833 155.929052 
L 164.808874 155.929052 
z
" clip-path="url(#pe0eb2c83d3)" style="fill: #2e8aa6; stroke: #ffffff; stroke-width: 0.3; stroke-linejoin: miter"/>
   </g>
   <g id="patch_7">
    <path d="M 204.993944 170.886 
L 210.485903 170.886 
L 210.485903 167.666427 
L 204.993944 167.666427 
z
" clip-path="url(#pe0eb2c83d3)" style="fill: #2e8aa6; stroke: #ffffff; stroke-width: 0.3; stroke-linejoin: miter"/>
   </g>
   <g id="patch_8">
    <path d="M 49.745624 170.886 
L 55.237583 170.886 
L 55.237583 91.115613 
L 49.745624 91.115613 
z
" clip-path="url(#pe0eb2c83d3)" style="fill: #c7ccd1; stroke: #ffffff; stroke-width: 0.3; stroke-linejoin: miter"/>
   </g>
   <g id="patch_9">
    <path d="M 89.930694 170.886 
L 95.422653 170.886 
L 95.422653 71.235532 
L 89.930694 71.235532 
z
" clip-path="url(#pe0eb2c83d3)" style="fill: #c7ccd1; stroke: #ffffff; stroke-width: 0.3; stroke-linejoin: miter"/>
   </g>
   <g id="patch_10">
    <path d="M 130.115764 170.886 
L 135.607723 170.886 
L 135.607723 37.914516 
L 130.115764 37.914516 
z
" clip-path="url(#pe0eb2c83d3)" style="fill: #c7ccd1; stroke: #ffffff; stroke-width: 0.3; stroke-linejoin: miter"/>
   </g>
   <g id="patch_11">
    <path d="M 170.300833 170.886 
L 175.792793 170.886 
L 175.792793 124.686693 
L 170.300833 124.686693 
z
" clip-path="url(#pe0eb2c83d3)" style="fill: #c7ccd1; stroke: #ffffff; stroke-width: 0.3; stroke-linejoin: miter"/>
   </g>
   <g id="patch_12">
    <path d="M 210.485903 170.886 
L 215.977863 170.886 
L 215.977863 125.577545 
L 210.485903 125.577545 
z
" clip-path="url(#pe0eb2c83d3)" style="fill: #c7ccd1; stroke: #ffffff; stroke-width: 0.3; stroke-linejoin: miter"/>
   </g>
   <g id="patch_13">
    <path d="M 55.237583 170.886 
L 60.729543 170.886 
L 60.729543 108.213732 
L 55.237583 108.213732 
z
" clip-path="url(#pe0eb2c83d3)" style="fill: #a7afb6; stroke: #ffffff; stroke-width: 0.3; stroke-linejoin: miter"/>
   </g>
   <g id="patch_14">
    <path d="M 95.422653 170.886 
L 100.914613 170.886 
L 100.914613 124.280339 
L 95.422653 124.280339 
z
" clip-path="url(#pe0eb2c83d3)" style="fill: #a7afb6; stroke: #ffffff; stroke-width: 0.3; stroke-linejoin: miter"/>
   </g>
   <g id="patch_15">
    <path d="M 135.607723 170.886 
L 141.099683 170.886 
L 141.099683 48.479716 
L 135.607723 48.479716 
z
" clip-path="url(#pe0eb2c83d3)" style="fill: #a7afb6; stroke: #ffffff; stroke-width: 0.3; stroke-linejoin: miter"/>
   </g>
   <g id="patch_16">
    <path d="M 175.792793 170.886 
L 181.284752 170.886 
L 181.284752 125.890125 
L 175.792793 125.890125 
z
" clip-path="url(#pe0eb2c83d3)" style="fill: #a7afb6; stroke: #ffffff; stroke-width: 0.3; stroke-linejoin: miter"/>
   </g>
   <g id="patch_17">
    <path d="M 215.977863 170.886 
L 221.469822 170.886 
L 221.469822 161.71178 
L 215.977863 161.71178 
z
" clip-path="url(#pe0eb2c83d3)" style="fill: #a7afb6; stroke: #ffffff; stroke-width: 0.3; stroke-linejoin: miter"/>
   </g>
   <g id="patch_18">
    <path d="M 60.729543 170.886 
L 66.221503 170.886 
L 66.221503 89.208875 
L 60.729543 89.208875 
z
" clip-path="url(#pe0eb2c83d3)" style="fill: #7e8893; stroke: #ffffff; stroke-width: 0.3; stroke-linejoin: miter"/>
   </g>
   <g id="patch_19">
    <path d="M 100.914613 170.886 
L 106.406572 170.886 
L 106.406572 109.6516 
L 100.914613 109.6516 
z
" clip-path="url(#pe0eb2c83d3)" style="fill: #7e8893; stroke: #ffffff; stroke-width: 0.3; stroke-linejoin: miter"/>
   </g>
   <g id="patch_20">
    <path d="M 141.099683 170.886 
L 146.591642 170.886 
L 146.591642 46.713639 
L 141.099683 46.713639 
z
" clip-path="url(#pe0eb2c83d3)" style="fill: #7e8893; stroke: #ffffff; stroke-width: 0.3; stroke-linejoin: miter"/>
   </g>
   <g id="patch_21">
    <path d="M 181.284752 170.886 
L 186.776712 170.886 
L 186.776712 130.17247 
L 181.284752 130.17247 
z
" clip-path="url(#pe0eb2c83d3)" style="fill: #7e8893; stroke: #ffffff; stroke-width: 0.3; stroke-linejoin: miter"/>
   </g>
   <g id="patch_22">
    <path d="M 221.469822 170.886 
L 226.961782 170.886 
L 226.961782 139.080996 
L 221.469822 139.080996 
z
" clip-path="url(#pe0eb2c83d3)" style="fill: #7e8893; stroke: #ffffff; stroke-width: 0.3; stroke-linejoin: miter"/>
   </g>
   <g id="patch_23">
    <path d="M 66.221503 170.886 
L 71.713462 170.886 
L 71.713462 121.404604 
L 66.221503 121.404604 
z
" clip-path="url(#pe0eb2c83d3)" style="fill: #5b6670; stroke: #ffffff; stroke-width: 0.3; stroke-linejoin: miter"/>
   </g>
   <g id="patch_24">
    <path d="M 106.406572 170.886 
L 111.898532 170.886 
L 111.898532 102.931132 
L 106.406572 102.931132 
z
" clip-path="url(#pe0eb2c83d3)" style="fill: #5b6670; stroke: #ffffff; stroke-width: 0.3; stroke-linejoin: miter"/>
   </g>
   <g id="patch_25">
    <path d="M 146.591642 170.886 
L 152.083602 170.886 
L 152.083602 36.91426 
L 146.591642 36.91426 
z
" clip-path="url(#pe0eb2c83d3)" style="fill: #5b6670; stroke: #ffffff; stroke-width: 0.3; stroke-linejoin: miter"/>
   </g>
   <g id="patch_26">
    <path d="M 186.776712 170.886 
L 192.268672 170.886 
L 192.268672 122.733068 
L 186.776712 122.733068 
z
" clip-path="url(#pe0eb2c83d3)" style="fill: #5b6670; stroke: #ffffff; stroke-width: 0.3; stroke-linejoin: miter"/>
   </g>
   <g id="patch_27">
    <path d="M 226.961782 170.886 
L 232.453741 170.886 
L 232.453741 145.754577 
L 226.961782 145.754577 
z
" clip-path="url(#pe0eb2c83d3)" style="fill: #5b6670; stroke: #ffffff; stroke-width: 0.3; stroke-linejoin: miter"/>
   </g>
   <g id="patch_28">
    <path d="M 71.713462 170.886 
L 77.205422 170.886 
L 77.205422 72.704657 
L 71.713462 72.704657 
z
" clip-path="url(#pe0eb2c83d3)" style="fill: #d39a3e; stroke: #ffffff; stroke-width: 0.3; stroke-linejoin: miter"/>
   </g>
   <g id="patch_29">
    <path d="M 111.898532 170.886 
L 117.390491 170.886 
L 117.390491 58.138434 
L 111.898532 58.138434 
z
" clip-path="url(#pe0eb2c83d3)" style="fill: #d39a3e; stroke: #ffffff; stroke-width: 0.3; stroke-linejoin: miter"/>
   </g>
   <g id="patch_30">
    <path d="M 152.083602 170.886 
L 157.575561 170.886 
L 157.575561 26.255286 
L 152.083602 26.255286 
z
" clip-path="url(#pe0eb2c83d3)" style="fill: #d39a3e; stroke: #ffffff; stroke-width: 0.3; stroke-linejoin: miter"/>
   </g>
   <g id="patch_31">
    <path d="M 192.268672 170.886 
L 197.760631 170.886 
L 197.760631 83.363631 
L 192.268672 83.363631 
z
" clip-path="url(#pe0eb2c83d3)" style="fill: #d39a3e; stroke: #ffffff; stroke-width: 0.3; stroke-linejoin: miter"/>
   </g>
   <g id="patch_32">
    <path d="M 232.453741 170.886 
L 237.945701 170.886 
L 237.945701 98.726933 
L 232.453741 98.726933 
z
" clip-path="url(#pe0eb2c83d3)" style="fill: #d39a3e; stroke: #ffffff; stroke-width: 0.3; stroke-linejoin: miter"/>
   </g>
   <g id="matplotlib.axis_1">
    <g id="xtick_1">
     <g id="line2d_1">
      <defs>
       <path id="mb47d69350d" d="M 0 0 
L 0 3.5 
" style="stroke: #000000; stroke-width: 0.8"/>
      </defs>
      <g>
       <use xlink:href="#mb47d69350d" x="60.729543" y="170.886" style="stroke: #000000; stroke-width: 0.8"/>
      </g>
     </g>
     <g id="text_1">
      <text style="font: 6px 'Arial', 'Helvetica', 'DejaVu Sans', sans-serif; text-anchor: middle" x="60.729543" y="182.180688" transform="rotate(-0 60.729543 182.180688)">Medicine</text>
     </g>
    </g>
    <g id="xtick_2">
     <g id="line2d_2">
      <g>
       <use xlink:href="#mb47d69350d" x="100.914613" y="170.886" style="stroke: #000000; stroke-width: 0.8"/>
      </g>
     </g>
     <g id="text_2">
      <text style="font: 6px 'Arial', 'Helvetica', 'DejaVu Sans', sans-serif; text-anchor: middle" x="100.914613" y="182.180688" transform="rotate(-0 100.914613 182.180688)">Genomics</text>
     </g>
    </g>
    <g id="xtick_3">
     <g id="line2d_3">
      <g>
       <use xlink:href="#mb47d69350d" x="141.099683" y="170.886" style="stroke: #000000; stroke-width: 0.8"/>
      </g>
     </g>
     <g id="text_3">
      <text style="font: 6px 'Arial', 'Helvetica', 'DejaVu Sans', sans-serif; text-anchor: middle" x="141.099683" y="182.180688" transform="rotate(-0 141.099683 182.180688)">Finance</text>
     </g>
    </g>
    <g id="xtick_4">
     <g id="line2d_4">
      <g>
       <use xlink:href="#mb47d69350d" x="181.284752" y="170.886" style="stroke: #000000; stroke-width: 0.8"/>
      </g>
     </g>
     <g id="text_4">
      <text style="font: 6px 'Arial', 'Helvetica', 'DejaVu Sans', sans-serif; text-anchor: middle" x="181.284752" y="182.253813" transform="rotate(-0 181.284752 182.253813)">Cyber</text>
     </g>
    </g>
    <g id="xtick_5">
     <g id="line2d_5">
      <g>
       <use xlink:href="#mb47d69350d" x="221.469822" y="170.886" style="stroke: #000000; stroke-width: 0.8"/>
      </g>
     </g>
     <g id="text_5">
      <text style="font: 6px 'Arial', 'Helvetica', 'DejaVu Sans', sans-serif; text-anchor: middle" x="221.469822" y="182.180688" transform="rotate(-0 221.469822 182.180688)">Legal</text>
     </g>
    </g>
   </g>
   <g id="matplotlib.axis_2">
    <g id="ytick_1">
     <g id="line2d_6">
      <defs>
       <path id="m9e21dc2c03" d="M 0 0 
L -3.5 0 
" style="stroke: #000000; stroke-width: 0.8"/>
      </defs>
      <g>
       <use xlink:href="#m9e21dc2c03" x="34.569063" y="170.886" style="stroke: #000000; stroke-width: 0.8"/>
      </g>
     </g>
     <g id="text_6">
      <!-- $\mathdefault{0.0}$ -->
      <g transform="translate(17.769063 173.391234)">
       <text>
        <tspan style="font: 7px 'Arial'" x="0 3.893066 5.837891" y="-0.96875">0.0</tspan>
       </text>
      </g>
     </g>
    </g>
    <g id="ytick_2">
     <g id="line2d_7">
      <g>
       <use xlink:href="#m9e21dc2c03" x="34.569063" y="139.628011" style="stroke: #000000; stroke-width: 0.8"/>
      </g>
     </g>
     <g id="text_7">
      <!-- $\mathdefault{0.2}$ -->
      <g transform="translate(17.769063 142.133246)">
       <text>
        <tspan style="font: 7px 'Arial'" x="0 3.893066 5.837891" y="-0.96875">0.2</tspan>
       </text>
      </g>
     </g>
    </g>
    <g id="ytick_3">
     <g id="line2d_8">
      <g>
       <use xlink:href="#m9e21dc2c03" x="34.569063" y="108.370022" style="stroke: #000000; stroke-width: 0.8"/>
      </g>
     </g>
     <g id="text_8">
      <!-- $\mathdefault{0.4}$ -->
      <g transform="translate(17.769063 110.875257)">
       <text>
        <tspan style="font: 7px 'Arial'" x="0 3.893066 5.837891" y="-0.96875">0.4</tspan>
       </text>
      </g>
     </g>
    </g>
    <g id="ytick_4">
     <g id="line2d_9">
      <g>
       <use xlink:href="#m9e21dc2c03" x="34.569063" y="77.112034" style="stroke: #000000; stroke-width: 0.8"/>
      </g>
     </g>
     <g id="text_9">
      <!-- $\mathdefault{0.6}$ -->
      <g transform="translate(17.769063 79.617268)">
       <text>
        <tspan style="font: 7px 'Arial'" x="0 3.893066 5.837891" y="-0.96875">0.6</tspan>
       </text>
      </g>
     </g>
    </g>
    <g id="ytick_5">
     <g id="line2d_10">
      <g>
       <use xlink:href="#m9e21dc2c03" x="34.569063" y="45.854045" style="stroke: #000000; stroke-width: 0.8"/>
      </g>
     </g>
     <g id="text_10">
      <!-- $\mathdefault{0.8}$ -->
      <g transform="translate(17.769063 48.359279)">
       <text>
        <tspan style="font: 7px 'Arial'" x="0 3.893066 5.837891" y="-0.96875">0.8</tspan>
       </text>
      </g>
     </g>
    </g>
    <g id="text_11">
     <text style="font: 7px 'Arial', 'Helvetica', 'DejaVu Sans', sans-serif; text-anchor: middle" x="12.295781" y="94.954875" transform="rotate(-90 12.295781 94.954875)">AURC (↓ better)</text>
    </g>
   </g>
   <g id="patch_33">
    <path d="M 34.569063 170.886 
L 34.569063 19.02375 
" style="fill: none; stroke: #000000; stroke-width: 0.5; stroke-linejoin: miter; stroke-linecap: square"/>
   </g>
   <g id="patch_34">
    <path d="M 247.630303 170.886 
L 247.630303 19.02375 
" style="fill: none; stroke: #000000; stroke-width: 0.5; stroke-linejoin: miter; stroke-linecap: square"/>
   </g>
   <g id="patch_35">
    <path d="M 34.569063 170.886 
L 247.630303 170.886 
" style="fill: none; stroke: #000000; stroke-width: 0.5; stroke-linejoin: miter; stroke-linecap: square"/>
   </g>
   <g id="patch_36">
    <path d="M 34.569063 19.02375 
L 247.630303 19.02375 
" style="fill: none; stroke: #000000; stroke-width: 0.5; stroke-linejoin: miter; stroke-linecap: square"/>
   </g>
   <g id="text_12">
    <text style="fill: #5f6b78; font: italic 4.6px 'Arial', 'Helvetica', 'DejaVu Sans', sans-serif; text-anchor: middle" x="141.099683" y="204.295695" transform="rotate(-0 141.099683 204.295695)">lower AURC = SMA abstains on hard cases (better risk coverage)</text>
   </g>
   <g id="text_13">
    <text style="font: 8px 'Arial', 'Helvetica', 'DejaVu Sans', sans-serif; text-anchor: start" x="34.569063" y="13.02375" transform="rotate(-0 34.569063 13.02375)">a   AURC per domain × memory</text>
   </g>
  </g>
  <g id="axes_2">
   <g id="patch_37">
    <path d="M 296.413252 170.886 
L 509.474492 170.886 
L 509.474492 19.02375 
L 296.413252 19.02375 
z
" style="fill: #ffffff"/>
   </g>
   <g id="patch_38">
    <path d="M 306.097854 170.886 
L 311.589813 170.886 
L 311.589813 29.521141 
L 306.097854 29.521141 
z
" clip-path="url(#p2ba08ac8d4)" style="fill: #2e8aa6; stroke: #ffffff; stroke-width: 0.3; stroke-linejoin: miter"/>
   </g>
   <g id="patch_39">
    <path d="M 346.282924 170.886 
L 351.774883 170.886 
L 351.774883 32.709237 
L 346.282924 32.709237 
z
" clip-path="url(#p2ba08ac8d4)" style="fill: #2e8aa6; stroke: #ffffff; stroke-width: 0.3; stroke-linejoin: miter"/>
   </g>
   <g id="patch_40">
    <path d="M 386.467993 170.886 
L 391.959953 170.886 
L 391.959953 29.521141 
L 386.467993 29.521141 
z
" clip-path="url(#p2ba08ac8d4)" style="fill: #2e8aa6; stroke: #ffffff; stroke-width: 0.3; stroke-linejoin: miter"/>
   </g>
   <g id="patch_41">
    <path d="M 426.653063 170.886 
L 432.145023 170.886 
L 432.145023 32.164928 
L 426.653063 32.164928 
z
" clip-path="url(#p2ba08ac8d4)" style="fill: #2e8aa6; stroke: #ffffff; stroke-width: 0.3; stroke-linejoin: miter"/>
   </g>
   <g id="patch_42">
    <path d="M 466.838133 170.886 
L 472.330093 170.886 
L 472.330093 29.521141 
L 466.838133 29.521141 
z
" clip-path="url(#p2ba08ac8d4)" style="fill: #2e8aa6; stroke: #ffffff; stroke-width: 0.3; stroke-linejoin: miter"/>
   </g>
   <g id="patch_43">
    <path d="M 311.589813 170.886 
L 317.081773 170.886 
L 317.081773 170.886 
L 311.589813 170.886 
z
" clip-path="url(#p2ba08ac8d4)" style="fill: #c7ccd1; stroke: #ffffff; stroke-width: 0.3; stroke-linejoin: miter"/>
   </g>
   <g id="patch_44">
    <path d="M 351.774883 170.886 
L 357.266843 170.886 
L 357.266843 170.886 
L 351.774883 170.886 
z
" clip-path="url(#p2ba08ac8d4)" style="fill: #c7ccd1; stroke: #ffffff; stroke-width: 0.3; stroke-linejoin: miter"/>
   </g>
   <g id="patch_45">
    <path d="M 391.959953 170.886 
L 397.451913 170.886 
L 397.451913 170.886 
L 391.959953 170.886 
z
" clip-path="url(#p2ba08ac8d4)" style="fill: #c7ccd1; stroke: #ffffff; stroke-width: 0.3; stroke-linejoin: miter"/>
   </g>
   <g id="patch_46">
    <path d="M 432.145023 170.886 
L 437.636982 170.886 
L 437.636982 170.886 
L 432.145023 170.886 
z
" clip-path="url(#p2ba08ac8d4)" style="fill: #c7ccd1; stroke: #ffffff; stroke-width: 0.3; stroke-linejoin: miter"/>
   </g>
   <g id="patch_47">
    <path d="M 472.330093 170.886 
L 477.822052 170.886 
L 477.822052 170.886 
L 472.330093 170.886 
z
" clip-path="url(#p2ba08ac8d4)" style="fill: #c7ccd1; stroke: #ffffff; stroke-width: 0.3; stroke-linejoin: miter"/>
   </g>
   <g id="patch_48">
    <path d="M 317.081773 170.886 
L 322.573732 170.886 
L 322.573732 170.886 
L 317.081773 170.886 
z
" clip-path="url(#p2ba08ac8d4)" style="fill: #a7afb6; stroke: #ffffff; stroke-width: 0.3; stroke-linejoin: miter"/>
   </g>
   <g id="patch_49">
    <path d="M 357.266843 170.886 
L 362.758802 170.886 
L 362.758802 170.886 
L 357.266843 170.886 
z
" clip-path="url(#p2ba08ac8d4)" style="fill: #a7afb6; stroke: #ffffff; stroke-width: 0.3; stroke-linejoin: miter"/>
   </g>
   <g id="patch_50">
    <path d="M 397.451913 170.886 
L 402.943872 170.886 
L 402.943872 170.886 
L 397.451913 170.886 
z
" clip-path="url(#p2ba08ac8d4)" style="fill: #a7afb6; stroke: #ffffff; stroke-width: 0.3; stroke-linejoin: miter"/>
   </g>
   <g id="patch_51">
    <path d="M 437.636982 170.886 
L 443.128942 170.886 
L 443.128942 170.886 
L 437.636982 170.886 
z
" clip-path="url(#p2ba08ac8d4)" style="fill: #a7afb6; stroke: #ffffff; stroke-width: 0.3; stroke-linejoin: miter"/>
   </g>
   <g id="patch_52">
    <path d="M 477.822052 170.886 
L 483.314012 170.886 
L 483.314012 170.886 
L 477.822052 170.886 
z
" clip-path="url(#p2ba08ac8d4)" style="fill: #a7afb6; stroke: #ffffff; stroke-width: 0.3; stroke-linejoin: miter"/>
   </g>
   <g id="patch_53">
    <path d="M 322.573732 170.886 
L 328.065692 170.886 
L 328.065692 170.886 
L 322.573732 170.886 
z
" clip-path="url(#p2ba08ac8d4)" style="fill: #7e8893; stroke: #ffffff; stroke-width: 0.3; stroke-linejoin: miter"/>
   </g>
   <g id="patch_54">
    <path d="M 362.758802 170.886 
L 368.250762 170.886 
L 368.250762 170.886 
L 362.758802 170.886 
z
" clip-path="url(#p2ba08ac8d4)" style="fill: #7e8893; stroke: #ffffff; stroke-width: 0.3; stroke-linejoin: miter"/>
   </g>
   <g id="patch_55">
    <path d="M 402.943872 170.886 
L 408.435832 170.886 
L 408.435832 170.886 
L 402.943872 170.886 
z
" clip-path="url(#p2ba08ac8d4)" style="fill: #7e8893; stroke: #ffffff; stroke-width: 0.3; stroke-linejoin: miter"/>
   </g>
   <g id="patch_56">
    <path d="M 443.128942 170.886 
L 448.620901 170.886 
L 448.620901 170.886 
L 443.128942 170.886 
z
" clip-path="url(#p2ba08ac8d4)" style="fill: #7e8893; stroke: #ffffff; stroke-width: 0.3; stroke-linejoin: miter"/>
   </g>
   <g id="patch_57">
    <path d="M 483.314012 170.886 
L 488.805971 170.886 
L 488.805971 170.886 
L 483.314012 170.886 
z
" clip-path="url(#p2ba08ac8d4)" style="fill: #7e8893; stroke: #ffffff; stroke-width: 0.3; stroke-linejoin: miter"/>
   </g>
   <g id="patch_58">
    <path d="M 328.065692 170.886 
L 333.557651 170.886 
L 333.557651 170.886 
L 328.065692 170.886 
z
" clip-path="url(#p2ba08ac8d4)" style="fill: #5b6670; stroke: #ffffff; stroke-width: 0.3; stroke-linejoin: miter"/>
   </g>
   <g id="patch_59">
    <path d="M 368.250762 170.886 
L 373.742721 170.886 
L 373.742721 170.886 
L 368.250762 170.886 
z
" clip-path="url(#p2ba08ac8d4)" style="fill: #5b6670; stroke: #ffffff; stroke-width: 0.3; stroke-linejoin: miter"/>
   </g>
   <g id="patch_60">
    <path d="M 408.435832 170.886 
L 413.927791 170.886 
L 413.927791 170.886 
L 408.435832 170.886 
z
" clip-path="url(#p2ba08ac8d4)" style="fill: #5b6670; stroke: #ffffff; stroke-width: 0.3; stroke-linejoin: miter"/>
   </g>
   <g id="patch_61">
    <path d="M 448.620901 170.886 
L 454.112861 170.886 
L 454.112861 170.886 
L 448.620901 170.886 
z
" clip-path="url(#p2ba08ac8d4)" style="fill: #5b6670; stroke: #ffffff; stroke-width: 0.3; stroke-linejoin: miter"/>
   </g>
   <g id="patch_62">
    <path d="M 488.805971 170.886 
L 494.297931 170.886 
L 494.297931 170.886 
L 488.805971 170.886 
z
" clip-path="url(#p2ba08ac8d4)" style="fill: #5b6670; stroke: #ffffff; stroke-width: 0.3; stroke-linejoin: miter"/>
   </g>
   <g id="patch_63">
    <path d="M 333.557651 170.886 
L 339.049611 170.886 
L 339.049611 26.255286 
L 333.557651 26.255286 
z
" clip-path="url(#p2ba08ac8d4)" style="fill: #d39a3e; stroke: #ffffff; stroke-width: 0.3; stroke-linejoin: miter"/>
   </g>
   <g id="patch_64">
    <path d="M 373.742721 170.886 
L 379.234681 170.886 
L 379.234681 26.721836 
L 373.742721 26.721836 
z
" clip-path="url(#p2ba08ac8d4)" style="fill: #d39a3e; stroke: #ffffff; stroke-width: 0.3; stroke-linejoin: miter"/>
   </g>
   <g id="patch_65">
    <path d="M 413.927791 170.886 
L 419.419751 170.886 
L 419.419751 31.776136 
L 413.927791 31.776136 
z
" clip-path="url(#p2ba08ac8d4)" style="fill: #d39a3e; stroke: #ffffff; stroke-width: 0.3; stroke-linejoin: miter"/>
   </g>
   <g id="patch_66">
    <path d="M 454.112861 170.886 
L 459.604821 170.886 
L 459.604821 29.521141 
L 454.112861 29.521141 
z
" clip-path="url(#p2ba08ac8d4)" style="fill: #d39a3e; stroke: #ffffff; stroke-width: 0.3; stroke-linejoin: miter"/>
   </g>
   <g id="patch_67">
    <path d="M 494.297931 170.886 
L 499.78989 170.886 
L 499.78989 29.132348 
L 494.297931 29.132348 
z
" clip-path="url(#p2ba08ac8d4)" style="fill: #d39a3e; stroke: #ffffff; stroke-width: 0.3; stroke-linejoin: miter"/>
   </g>
   <g id="matplotlib.axis_3">
    <g id="xtick_6">
     <g id="line2d_11">
      <g>
       <use xlink:href="#mb47d69350d" x="322.573732" y="170.886" style="stroke: #000000; stroke-width: 0.8"/>
      </g>
     </g>
     <g id="text_14">
      <text style="font: 6px 'Arial', 'Helvetica', 'DejaVu Sans', sans-serif; text-anchor: middle" x="322.573732" y="182.180688" transform="rotate(-0 322.573732 182.180688)">Medicine</text>
     </g>
    </g>
    <g id="xtick_7">
     <g id="line2d_12">
      <g>
       <use xlink:href="#mb47d69350d" x="362.758802" y="170.886" style="stroke: #000000; stroke-width: 0.8"/>
      </g>
     </g>
     <g id="text_15">
      <text style="font: 6px 'Arial', 'Helvetica', 'DejaVu Sans', sans-serif; text-anchor: middle" x="362.758802" y="182.180688" transform="rotate(-0 362.758802 182.180688)">Genomics</text>
     </g>
    </g>
    <g id="xtick_8">
     <g id="line2d_13">
      <g>
       <use xlink:href="#mb47d69350d" x="402.943872" y="170.886" style="stroke: #000000; stroke-width: 0.8"/>
      </g>
     </g>
     <g id="text_16">
      <text style="font: 6px 'Arial', 'Helvetica', 'DejaVu Sans', sans-serif; text-anchor: middle" x="402.943872" y="182.180688" transform="rotate(-0 402.943872 182.180688)">Finance</text>
     </g>
    </g>
    <g id="xtick_9">
     <g id="line2d_14">
      <g>
       <use xlink:href="#mb47d69350d" x="443.128942" y="170.886" style="stroke: #000000; stroke-width: 0.8"/>
      </g>
     </g>
     <g id="text_17">
      <text style="font: 6px 'Arial', 'Helvetica', 'DejaVu Sans', sans-serif; text-anchor: middle" x="443.128942" y="182.253813" transform="rotate(-0 443.128942 182.253813)">Cyber</text>
     </g>
    </g>
    <g id="xtick_10">
     <g id="line2d_15">
      <g>
       <use xlink:href="#mb47d69350d" x="483.314012" y="170.886" style="stroke: #000000; stroke-width: 0.8"/>
      </g>
     </g>
     <g id="text_18">
      <text style="font: 6px 'Arial', 'Helvetica', 'DejaVu Sans', sans-serif; text-anchor: middle" x="483.314012" y="182.180688" transform="rotate(-0 483.314012 182.180688)">Legal</text>
     </g>
    </g>
   </g>
   <g id="matplotlib.axis_4">
    <g id="ytick_6">
     <g id="line2d_16">
      <g>
       <use xlink:href="#m9e21dc2c03" x="296.413252" y="170.886" style="stroke: #000000; stroke-width: 0.8"/>
      </g>
     </g>
     <g id="text_19">
      <!-- $\mathdefault{0.000}$ -->
      <g transform="translate(271.843252 173.391234)">
       <text>
        <tspan style="font: 7px 'Arial'" x="0 3.893066 5.837891 9.730957 13.624023" y="-0.96875">0.000</tspan>
       </text>
      </g>
     </g>
    </g>
    <g id="ytick_7">
     <g id="line2d_17">
      <g>
       <use xlink:href="#m9e21dc2c03" x="296.413252" y="151.446388" style="stroke: #000000; stroke-width: 0.8"/>
      </g>
     </g>
     <g id="text_20">
      <!-- $\mathdefault{0.025}$ -->
      <g transform="translate(271.843252 153.951622)">
       <text>
        <tspan style="font: 7px 'Arial'" x="0 3.893066 5.837891 9.730957 13.624023" y="-0.96875">0.025</tspan>
       </text>
      </g>
     </g>
    </g>
    <g id="ytick_8">
     <g id="line2d_18">
      <g>
       <use xlink:href="#m9e21dc2c03" x="296.413252" y="132.006776" style="stroke: #000000; stroke-width: 0.8"/>
      </g>
     </g>
     <g id="text_21">
      <!-- $\mathdefault{0.050}$ -->
      <g transform="translate(271.843252 134.51201)">
       <text>
        <tspan style="font: 7px 'Arial'" x="0 3.893066 5.837891 9.730957 13.624023" y="-0.96875">0.050</tspan>
       </text>
      </g>
     </g>
    </g>
    <g id="ytick_9">
     <g id="line2d_19">
      <g>
       <use xlink:href="#m9e21dc2c03" x="296.413252" y="112.567164" style="stroke: #000000; stroke-width: 0.8"/>
      </g>
     </g>
     <g id="text_22">
      <!-- $\mathdefault{0.075}$ -->
      <g transform="translate(271.843252 115.072398)">
       <text>
        <tspan style="font: 7px 'Arial'" x="0 3.893066 5.837891 9.730957 13.624023" y="-0.96875">0.075</tspan>
       </text>
      </g>
     </g>
    </g>
    <g id="ytick_10">
     <g id="line2d_20">
      <g>
       <use xlink:href="#m9e21dc2c03" x="296.413252" y="93.127551" style="stroke: #000000; stroke-width: 0.8"/>
      </g>
     </g>
     <g id="text_23">
      <!-- $\mathdefault{0.100}$ -->
      <g transform="translate(271.843252 95.632786)">
       <text>
        <tspan style="font: 7px 'Arial'" x="0 3.893066 5.837891 9.730957 13.624023" y="-0.96875">0.100</tspan>
       </text>
      </g>
     </g>
    </g>
    <g id="ytick_11">
     <g id="line2d_21">
      <g>
       <use xlink:href="#m9e21dc2c03" x="296.413252" y="73.687939" style="stroke: #000000; stroke-width: 0.8"/>
      </g>
     </g>
     <g id="text_24">
      <!-- $\mathdefault{0.125}$ -->
      <g transform="translate(271.843252 76.193174)">
       <text>
        <tspan style="font: 7px 'Arial'" x="0 3.893066 5.837891 9.730957 13.624023" y="-0.96875">0.125</tspan>
       </text>
      </g>
     </g>
    </g>
    <g id="ytick_12">
     <g id="line2d_22">
      <g>
       <use xlink:href="#m9e21dc2c03" x="296.413252" y="54.248327" style="stroke: #000000; stroke-width: 0.8"/>
      </g>
     </g>
     <g id="text_25">
      <!-- $\mathdefault{0.150}$ -->
      <g transform="translate(271.843252 56.753562)">
       <text>
        <tspan style="font: 7px 'Arial'" x="0 3.893066 5.837891 9.730957 13.624023" y="-0.96875">0.150</tspan>
       </text>
      </g>
     </g>
    </g>
    <g id="ytick_13">
     <g id="line2d_23">
      <g>
       <use xlink:href="#m9e21dc2c03" x="296.413252" y="34.808715" style="stroke: #000000; stroke-width: 0.8"/>
      </g>
     </g>
     <g id="text_26">
      <!-- $\mathdefault{0.175}$ -->
      <g transform="translate(271.843252 37.313949)">
       <text>
        <tspan style="font: 7px 'Arial'" x="0 3.893066 5.837891 9.730957 13.624023" y="-0.96875">0.175</tspan>
       </text>
      </g>
     </g>
    </g>
    <g id="text_27">
     <text style="font: 7px 'Arial', 'Helvetica', 'DejaVu Sans', sans-serif; text-anchor: middle" x="266.369971" y="94.954875" transform="rotate(-90 266.369971 94.954875)">Novelty-F1 (↑ better)</text>
    </g>
   </g>
   <g id="patch_68">
    <path d="M 296.413252 170.886 
L 296.413252 19.02375 
" style="fill: none; stroke: #000000; stroke-width: 0.5; stroke-linejoin: miter; stroke-linecap: square"/>
   </g>
   <g id="patch_69">
    <path d="M 509.474492 170.886 
L 509.474492 19.02375 
" style="fill: none; stroke: #000000; stroke-width: 0.5; stroke-linejoin: miter; stroke-linecap: square"/>
   </g>
   <g id="patch_70">
    <path d="M 296.413252 170.886 
L 509.474492 170.886 
" style="fill: none; stroke: #000000; stroke-width: 0.5; stroke-linejoin: miter; stroke-linecap: square"/>
   </g>
   <g id="patch_71">
    <path d="M 296.413252 19.02375 
L 509.474492 19.02375 
" style="fill: none; stroke: #000000; stroke-width: 0.5; stroke-linejoin: miter; stroke-linecap: square"/>
   </g>
   <g id="text_28">
    <text style="font: 8px 'Arial', 'Helvetica', 'DejaVu Sans', sans-serif; text-anchor: start" x="296.413252" y="13.02375" transform="rotate(-0 296.413252 13.02375)">b   Novelty-F1 per domain × memory</text>
   </g>
  </g>
  <g id="legend_1">
   <g id="patch_72">
    <path d="M 123.524336 219.621656 
L 133.524336 219.621656 
L 133.524336 216.121656 
L 123.524336 216.121656 
z
" style="fill: #2e8aa6; stroke: #ffffff; stroke-width: 0.3; stroke-linejoin: miter"/>
   </g>
   <g id="text_29">
    <text style="font: 5px 'Arial', 'Helvetica', 'DejaVu Sans', sans-serif; text-anchor: start" x="137.524336" y="219.621656" transform="rotate(-0 137.524336 219.621656)">SMA</text>
   </g>
   <g id="patch_73">
    <path d="M 158.359492 219.621656 
L 168.359492 219.621656 
L 168.359492 216.121656 
L 158.359492 216.121656 
z
" style="fill: #c7ccd1; stroke: #ffffff; stroke-width: 0.3; stroke-linejoin: miter"/>
   </g>
   <g id="text_30">
    <text style="font: 5px 'Arial', 'Helvetica', 'DejaVu Sans', sans-serif; text-anchor: start" x="172.359492" y="219.621656" transform="rotate(-0 172.359492 219.621656)">BM25</text>
   </g>
   <g id="patch_74">
    <path d="M 195.42043 219.621656 
L 205.42043 219.621656 
L 205.42043 216.121656 
L 195.42043 216.121656 
z
" style="fill: #a7afb6; stroke: #ffffff; stroke-width: 0.3; stroke-linejoin: miter"/>
   </g>
   <g id="text_31">
    <text style="font: 5px 'Arial', 'Helvetica', 'DejaVu Sans', sans-serif; text-anchor: start" x="209.42043" y="219.621656" transform="rotate(-0 209.42043 219.621656)">Dense-RAG</text>
   </g>
   <g id="patch_75">
    <path d="M 246.372773 219.621656 
L 256.372773 219.621656 
L 256.372773 216.121656 
L 246.372773 216.121656 
z
" style="fill: #7e8893; stroke: #ffffff; stroke-width: 0.3; stroke-linejoin: miter"/>
   </g>
   <g id="text_32">
    <text style="font: 5px 'Arial', 'Helvetica', 'DejaVu Sans', sans-serif; text-anchor: start" x="260.372773" y="219.621656" transform="rotate(-0 260.372773 219.621656)">Hybrid-RRF</text>
   </g>
   <g id="patch_76">
    <path d="M 296.761055 219.621656 
L 306.761055 219.621656 
L 306.761055 216.121656 
L 296.761055 216.121656 
z
" style="fill: #5b6670; stroke: #ffffff; stroke-width: 0.3; stroke-linejoin: miter"/>
   </g>
   <g id="text_33">
    <text style="font: 5px 'Arial', 'Helvetica', 'DejaVu Sans', sans-serif; text-anchor: start" x="310.761055" y="219.621656" transform="rotate(-0 310.761055 219.621656)">Hybrid+Rerank</text>
   </g>
   <g id="patch_77">
    <path d="M 354.246211 219.621656 
L 364.246211 219.621656 
L 364.246211 216.121656 
L 354.246211 216.121656 
z
" style="fill: #d39a3e; stroke: #ffffff; stroke-width: 0.3; stroke-linejoin: miter"/>
   </g>
   <g id="text_34">
    <text style="font: 5px 'Arial', 'Helvetica', 'DejaVu Sans', sans-serif; text-anchor: start" x="368.246211" y="219.621656" transform="rotate(-0 368.246211 219.621656)">HippoRAG</text>
   </g>
  </g>
 </g>
 <defs>
  <clipPath id="pe0eb2c83d3">
   <rect x="34.569063" y="19.02375" width="213.06124" height="151.86225"/>
  </clipPath>
  <clipPath id="p2ba08ac8d4">
   <rect x="296.413252" y="19.02375" width="213.06124" height="151.86225"/>
  </clipPath>
 </defs>
</svg>
