<?xml version="1.0" encoding="utf-8" standalone="no"?>
<!DOCTYPE svg PUBLIC "-//W3C//DTD SVG 1.1//EN"
  "http://www.w3.org/Graphics/SVG/1.1/DTD/svg11.dtd">
<svg xmlns:xlink="http://www.w3.org/1999/xlink" width="541.704473pt" height="255.898023pt" viewBox="0 0 541.704473 255.898023" xmlns="http://www.w3.org/2000/svg" version="1.1">
 <metadata>
  <rdf:RDF xmlns:dc="http://purl.org/dc/elements/1.1/" xmlns:cc="http://creativecommons.org/ns#" xmlns:rdf="http://www.w3.org/1999/02/22-rdf-syntax-ns#">
   <cc:Work>
    <dc:type rdf:resource="http://purl.org/dc/dcmitype/StillImage"/>
    <dc:date>2026-06-13T22:10:12.517657</dc:date>
    <dc:format>image/svg+xml</dc:format>
    <dc:creator>
     <cc:Agent>
      <dc:title>Matplotlib v3.9.2, https://matplotlib.org/</dc:title>
     </cc:Agent>
    </dc:creator>
   </cc:Work>
  </rdf:RDF>
 </metadata>
 <defs>
  <style type="text/css">*{stroke-linejoin: round; stroke-linecap: butt}</style>
 </defs>
 <g id="figure_1">
  <g id="patch_1">
   <path d="M 0 255.898023 
L 541.704473 255.898023 
L 541.704473 0 
L 0 0 
z
" style="fill: #ffffff"/>
  </g>
  <g id="axes_1">
   <g id="patch_2">
    <path d="M 37.845938 188.800023 
L 255.365601 188.800023 
L 255.365601 22.115703 
L 37.845938 22.115703 
z
" style="fill: #ffffff"/>
   </g>
   <g id="patch_3">
    <path d="M 47.733195 188.800023 
L 53.340077 188.800023 
L 53.340077 185.815155 
L 47.733195 185.815155 
z
" clip-path="url(#p13b67eea73)" style="fill: #2e8aa6; stroke: #ffffff; stroke-width: 0.3; stroke-linejoin: miter"/>
   </g>
   <g id="patch_4">
    <path d="M 88.759159 188.800023 
L 94.366041 188.800023 
L 94.366041 170.599187 
L 88.759159 170.599187 
z
" clip-path="url(#p13b67eea73)" style="fill: #2e8aa6; stroke: #ffffff; stroke-width: 0.3; stroke-linejoin: miter"/>
   </g>
   <g id="patch_5">
    <path d="M 129.785124 188.800023 
L 135.392006 188.800023 
L 135.392006 97.847306 
L 129.785124 97.847306 
z
" clip-path="url(#p13b67eea73)" style="fill: #2e8aa6; stroke: #ffffff; stroke-width: 0.3; stroke-linejoin: miter"/>
   </g>
   <g id="patch_6">
    <path d="M 170.811089 188.800023 
L 176.41797 188.800023 
L 176.41797 172.383246 
L 170.811089 172.383246 
z
" clip-path="url(#p13b67eea73)" style="fill: #2e8aa6; stroke: #ffffff; stroke-width: 0.3; stroke-linejoin: miter"/>
   </g>
   <g id="patch_7">
    <path d="M 211.837053 188.800023 
L 217.443935 188.800023 
L 217.443935 185.266213 
L 211.837053 185.266213 
z
" clip-path="url(#p13b67eea73)" style="fill: #2e8aa6; stroke: #ffffff; stroke-width: 0.3; stroke-linejoin: miter"/>
   </g>
   <g id="patch_8">
    <path d="M 53.340077 188.800023 
L 58.946959 188.800023 
L 58.946959 101.243881 
L 53.340077 101.243881 
z
" clip-path="url(#p13b67eea73)" style="fill: #c7ccd1; stroke: #ffffff; stroke-width: 0.3; stroke-linejoin: miter"/>
   </g>
   <g id="patch_9">
    <path d="M 94.366041 188.800023 
L 99.972923 188.800023 
L 99.972923 79.423463 
L 94.366041 79.423463 
z
" clip-path="url(#p13b67eea73)" style="fill: #c7ccd1; stroke: #ffffff; stroke-width: 0.3; stroke-linejoin: miter"/>
   </g>
   <g id="patch_10">
    <path d="M 135.392006 188.800023 
L 140.998888 188.800023 
L 140.998888 42.850246 
L 135.392006 42.850246 
z
" clip-path="url(#p13b67eea73)" style="fill: #c7ccd1; stroke: #ffffff; stroke-width: 0.3; stroke-linejoin: miter"/>
   </g>
   <g id="patch_11">
    <path d="M 176.41797 188.800023 
L 182.024852 188.800023 
L 182.024852 138.091568 
L 176.41797 138.091568 
z
" clip-path="url(#p13b67eea73)" style="fill: #c7ccd1; stroke: #ffffff; stroke-width: 0.3; stroke-linejoin: miter"/>
   </g>
   <g id="patch_12">
    <path d="M 217.443935 188.800023 
L 223.050817 188.800023 
L 223.050817 139.069369 
L 217.443935 139.069369 
z
" clip-path="url(#p13b67eea73)" style="fill: #c7ccd1; stroke: #ffffff; stroke-width: 0.3; stroke-linejoin: miter"/>
   </g>
   <g id="patch_13">
    <path d="M 58.946959 188.800023 
L 64.55384 188.800023 
L 64.55384 120.010812 
L 58.946959 120.010812 
z
" clip-path="url(#p13b67eea73)" style="fill: #a7afb6; stroke: #ffffff; stroke-width: 0.3; stroke-linejoin: miter"/>
   </g>
   <g id="patch_14">
    <path d="M 99.972923 188.800023 
L 105.579805 188.800023 
L 105.579805 137.645553 
L 99.972923 137.645553 
z
" clip-path="url(#p13b67eea73)" style="fill: #a7afb6; stroke: #ffffff; stroke-width: 0.3; stroke-linejoin: miter"/>
   </g>
   <g id="patch_15">
    <path d="M 140.998888 188.800023 
L 146.605769 188.800023 
L 146.605769 54.446632 
L 140.998888 54.446632 
z
" clip-path="url(#p13b67eea73)" style="fill: #a7afb6; stroke: #ffffff; stroke-width: 0.3; stroke-linejoin: miter"/>
   </g>
   <g id="patch_16">
    <path d="M 182.024852 188.800023 
L 187.631734 188.800023 
L 187.631734 139.412458 
L 182.024852 139.412458 
z
" clip-path="url(#p13b67eea73)" style="fill: #a7afb6; stroke: #ffffff; stroke-width: 0.3; stroke-linejoin: miter"/>
   </g>
   <g id="patch_17">
    <path d="M 223.050817 188.800023 
L 228.657699 188.800023 
L 228.657699 178.730381 
L 223.050817 178.730381 
z
" clip-path="url(#p13b67eea73)" style="fill: #a7afb6; stroke: #ffffff; stroke-width: 0.3; stroke-linejoin: miter"/>
   </g>
   <g id="patch_18">
    <path d="M 64.55384 188.800023 
L 70.160722 188.800023 
L 70.160722 99.151042 
L 64.55384 99.151042 
z
" clip-path="url(#p13b67eea73)" style="fill: #7e8893; stroke: #ffffff; stroke-width: 0.3; stroke-linejoin: miter"/>
   </g>
   <g id="patch_19">
    <path d="M 105.579805 188.800023 
L 111.186687 188.800023 
L 111.186687 121.589019 
L 105.579805 121.589019 
z
" clip-path="url(#p13b67eea73)" style="fill: #7e8893; stroke: #ffffff; stroke-width: 0.3; stroke-linejoin: miter"/>
   </g>
   <g id="patch_20">
    <path d="M 146.605769 188.800023 
L 152.212651 188.800023 
L 152.212651 52.508183 
L 146.605769 52.508183 
z
" clip-path="url(#p13b67eea73)" style="fill: #7e8893; stroke: #ffffff; stroke-width: 0.3; stroke-linejoin: miter"/>
   </g>
   <g id="patch_21">
    <path d="M 187.631734 188.800023 
L 193.238616 188.800023 
L 193.238616 144.112768 
L 187.631734 144.112768 
z
" clip-path="url(#p13b67eea73)" style="fill: #7e8893; stroke: #ffffff; stroke-width: 0.3; stroke-linejoin: miter"/>
   </g>
   <g id="patch_22">
    <path d="M 228.657699 188.800023 
L 234.26458 188.800023 
L 234.26458 153.890785 
L 228.657699 153.890785 
z
" clip-path="url(#p13b67eea73)" style="fill: #7e8893; stroke: #ffffff; stroke-width: 0.3; stroke-linejoin: miter"/>
   </g>
   <g id="patch_23">
    <path d="M 70.160722 188.800023 
L 75.767604 188.800023 
L 75.767604 134.48914 
L 70.160722 134.48914 
z
" clip-path="url(#p13b67eea73)" style="fill: #5b6670; stroke: #ffffff; stroke-width: 0.3; stroke-linejoin: miter"/>
   </g>
   <g id="patch_24">
    <path d="M 111.186687 188.800023 
L 116.793569 188.800023 
L 116.793569 114.21262 
L 111.186687 114.21262 
z
" clip-path="url(#p13b67eea73)" style="fill: #5b6670; stroke: #ffffff; stroke-width: 0.3; stroke-linejoin: miter"/>
   </g>
   <g id="patch_25">
    <path d="M 152.212651 188.800023 
L 157.819533 188.800023 
L 157.819533 41.752364 
L 152.212651 41.752364 
z
" clip-path="url(#p13b67eea73)" style="fill: #5b6670; stroke: #ffffff; stroke-width: 0.3; stroke-linejoin: miter"/>
   </g>
   <g id="patch_26">
    <path d="M 193.238616 188.800023 
L 198.845498 188.800023 
L 198.845498 135.947266 
L 193.238616 135.947266 
z
" clip-path="url(#p13b67eea73)" style="fill: #5b6670; stroke: #ffffff; stroke-width: 0.3; stroke-linejoin: miter"/>
   </g>
   <g id="patch_27">
    <path d="M 234.26458 188.800023 
L 239.871462 188.800023 
L 239.871462 161.215721 
L 234.26458 161.215721 
z
" clip-path="url(#p13b67eea73)" style="fill: #5b6670; stroke: #ffffff; stroke-width: 0.3; stroke-linejoin: miter"/>
   </g>
   <g id="patch_28">
    <path d="M 75.767604 188.800023 
L 81.374486 188.800023 
L 81.374486 81.035978 
L 75.767604 81.035978 
z
" clip-path="url(#p13b67eea73)" style="fill: #d39a3e; stroke: #ffffff; stroke-width: 0.3; stroke-linejoin: miter"/>
   </g>
   <g id="patch_29">
    <path d="M 116.793569 188.800023 
L 122.40045 188.800023 
L 122.40045 65.048062 
L 116.793569 65.048062 
z
" clip-path="url(#p13b67eea73)" style="fill: #d39a3e; stroke: #ffffff; stroke-width: 0.3; stroke-linejoin: miter"/>
   </g>
   <g id="patch_30">
    <path d="M 157.819533 188.800023 
L 163.426415 188.800023 
L 163.426415 30.053052 
L 157.819533 30.053052 
z
" clip-path="url(#p13b67eea73)" style="fill: #d39a3e; stroke: #ffffff; stroke-width: 0.3; stroke-linejoin: miter"/>
   </g>
   <g id="patch_31">
    <path d="M 198.845498 188.800023 
L 204.452379 188.800023 
L 204.452379 92.73529 
L 198.845498 92.73529 
z
" clip-path="url(#p13b67eea73)" style="fill: #d39a3e; stroke: #ffffff; stroke-width: 0.3; stroke-linejoin: miter"/>
   </g>
   <g id="patch_32">
    <path d="M 239.871462 188.800023 
L 245.478344 188.800023 
L 245.478344 109.598082 
L 239.871462 109.598082 
z
" clip-path="url(#p13b67eea73)" style="fill: #d39a3e; stroke: #ffffff; stroke-width: 0.3; stroke-linejoin: miter"/>
   </g>
   <g id="matplotlib.axis_1">
    <g id="xtick_1">
     <g id="line2d_1">
      <defs>
       <path id="m407701c5a5" d="M 0 0 
L 0 3.5 
" style="stroke: #000000; stroke-width: 0.8"/>
      </defs>
      <g>
       <use xlink:href="#m407701c5a5" x="64.55384" y="188.800023" style="stroke: #000000; stroke-width: 0.8"/>
      </g>
     </g>
     <g id="text_1">
      <text style="font: 8px 'Arial', 'Helvetica', 'DejaVu Sans', sans-serif; text-anchor: middle" x="64.55384" y="201.526273" transform="rotate(-0 64.55384 201.526273)">Medicine</text>
     </g>
    </g>
    <g id="xtick_2">
     <g id="line2d_2">
      <g>
       <use xlink:href="#m407701c5a5" x="105.579805" y="188.800023" style="stroke: #000000; stroke-width: 0.8"/>
      </g>
     </g>
     <g id="text_2">
      <text style="font: 8px 'Arial', 'Helvetica', 'DejaVu Sans', sans-serif; text-anchor: middle" x="105.579805" y="201.526273" transform="rotate(-0 105.579805 201.526273)">Genomics</text>
     </g>
    </g>
    <g id="xtick_3">
     <g id="line2d_3">
      <g>
       <use xlink:href="#m407701c5a5" x="146.605769" y="188.800023" style="stroke: #000000; stroke-width: 0.8"/>
      </g>
     </g>
     <g id="text_3">
      <text style="font: 8px 'Arial', 'Helvetica', 'DejaVu Sans', sans-serif; text-anchor: middle" x="146.605769" y="201.526273" transform="rotate(-0 146.605769 201.526273)">Finance</text>
     </g>
    </g>
    <g id="xtick_4">
     <g id="line2d_4">
      <g>
       <use xlink:href="#m407701c5a5" x="187.631734" y="188.800023" style="stroke: #000000; stroke-width: 0.8"/>
      </g>
     </g>
     <g id="text_4">
      <text style="font: 8px 'Arial', 'Helvetica', 'DejaVu Sans', sans-serif; text-anchor: middle" x="187.631734" y="201.623773" transform="rotate(-0 187.631734 201.623773)">Cyber</text>
     </g>
    </g>
    <g id="xtick_5">
     <g id="line2d_5">
      <g>
       <use xlink:href="#m407701c5a5" x="228.657699" y="188.800023" style="stroke: #000000; stroke-width: 0.8"/>
      </g>
     </g>
     <g id="text_5">
      <text style="font: 8px 'Arial', 'Helvetica', 'DejaVu Sans', sans-serif; text-anchor: middle" x="228.657699" y="201.526273" transform="rotate(-0 228.657699 201.526273)">Legal</text>
     </g>
    </g>
   </g>
   <g id="matplotlib.axis_2">
    <g id="ytick_1">
     <g id="line2d_6">
      <defs>
       <path id="mc39c7794b2" d="M 0 0 
L -3.5 0 
" style="stroke: #000000; stroke-width: 0.8"/>
      </defs>
      <g>
       <use xlink:href="#mc39c7794b2" x="37.845938" y="188.800023" style="stroke: #000000; stroke-width: 0.8"/>
      </g>
     </g>
     <g id="text_6">
      <!-- $\mathdefault{0.0}$ -->
      <g transform="translate(19.645938 191.663148)">
       <text>
        <tspan style="font: 8px 'Arial'" x="0 4.449219 6.671875" y="-0.25">0.0</tspan>
       </text>
      </g>
     </g>
    </g>
    <g id="ytick_2">
     <g id="line2d_7">
      <g>
       <use xlink:href="#mc39c7794b2" x="37.845938" y="154.49119" style="stroke: #000000; stroke-width: 0.8"/>
      </g>
     </g>
     <g id="text_7">
      <!-- $\mathdefault{0.2}$ -->
      <g transform="translate(19.645938 157.354315)">
       <text>
        <tspan style="font: 8px 'Arial'" x="0 4.449219 6.671875" y="-0.25">0.2</tspan>
       </text>
      </g>
     </g>
    </g>
    <g id="ytick_3">
     <g id="line2d_8">
      <g>
       <use xlink:href="#mc39c7794b2" x="37.845938" y="120.182357" style="stroke: #000000; stroke-width: 0.8"/>
      </g>
     </g>
     <g id="text_8">
      <!-- $\mathdefault{0.4}$ -->
      <g transform="translate(19.645938 123.045482)">
       <text>
        <tspan style="font: 8px 'Arial'" x="0 4.449219 6.671875" y="-0.25">0.4</tspan>
       </text>
      </g>
     </g>
    </g>
    <g id="ytick_4">
     <g id="line2d_9">
      <g>
       <use xlink:href="#mc39c7794b2" x="37.845938" y="85.873523" style="stroke: #000000; stroke-width: 0.8"/>
      </g>
     </g>
     <g id="text_9">
      <!-- $\mathdefault{0.6}$ -->
      <g transform="translate(19.645938 88.736648)">
       <text>
        <tspan style="font: 8px 'Arial'" x="0 4.449219 6.671875" y="-0.25">0.6</tspan>
       </text>
      </g>
     </g>
    </g>
    <g id="ytick_5">
     <g id="line2d_10">
      <g>
       <use xlink:href="#mc39c7794b2" x="37.845938" y="51.56469" style="stroke: #000000; stroke-width: 0.8"/>
      </g>
     </g>
     <g id="text_10">
      <!-- $\mathdefault{0.8}$ -->
      <g transform="translate(19.645938 54.427815)">
       <text>
        <tspan style="font: 8px 'Arial'" x="0 4.449219 6.671875" y="-0.25">0.8</tspan>
       </text>
      </g>
     </g>
    </g>
    <g id="text_11">
     <text style="font: 9px 'Arial', 'Helvetica', 'DejaVu Sans', sans-serif; text-anchor: middle" x="13.751719" y="105.457863" transform="rotate(-90 13.751719 105.457863)">AURC (↓ better)</text>
    </g>
   </g>
   <g id="patch_33">
    <path d="M 37.845938 188.800023 
L 37.845938 22.115703 
" style="fill: none; stroke: #000000; stroke-width: 0.8; stroke-linejoin: miter; stroke-linecap: square"/>
   </g>
   <g id="patch_34">
    <path d="M 255.365601 188.800023 
L 255.365601 22.115703 
" style="fill: none; stroke: #000000; stroke-width: 0.8; stroke-linejoin: miter; stroke-linecap: square"/>
   </g>
   <g id="patch_35">
    <path d="M 37.845938 188.800023 
L 255.365601 188.800023 
" style="fill: none; stroke: #000000; stroke-width: 0.8; stroke-linejoin: miter; stroke-linecap: square"/>
   </g>
   <g id="patch_36">
    <path d="M 37.845938 22.115703 
L 255.365601 22.115703 
" style="fill: none; stroke: #000000; stroke-width: 0.8; stroke-linejoin: miter; stroke-linecap: square"/>
   </g>
   <g id="text_12">
    <text style="fill: #1a1f24; font: 700 11px 'Arial', 'Helvetica', 'DejaVu Sans', sans-serif; text-anchor: start" x="9.568381" y="16.654551" transform="rotate(-0 9.568381 16.654551)">a</text>
   </g>
   <g id="text_13">
    <text style="fill: #5f6b78; font: italic 7px 'Arial', 'Helvetica', 'DejaVu Sans', sans-serif; text-anchor: middle" x="146.605769" y="232.137946" transform="rotate(-0 146.605769 232.137946)">lower AURC = SMA abstains on hard cases (better risk coverage)</text>
   </g>
   <g id="text_14">
    <text style="font: 9.5px 'Arial', 'Helvetica', 'DejaVu Sans', sans-serif; text-anchor: start" x="37.845938" y="14.115703" transform="rotate(-0 37.845938 14.115703)">AURC per domain × memory</text>
   </g>
  </g>
  <g id="axes_2">
   <g id="patch_37">
    <path d="M 316.984809 188.800023 
L 534.504473 188.800023 
L 534.504473 22.115703 
L 316.984809 22.115703 
z
" style="fill: #ffffff"/>
   </g>
   <g id="patch_38">
    <path d="M 326.872066 188.800023 
L 332.478948 188.800023 
L 332.478948 33.637661 
L 326.872066 33.637661 
z
" clip-path="url(#p7563939450)" style="fill: #2e8aa6; stroke: #ffffff; stroke-width: 0.3; stroke-linejoin: miter"/>
   </g>
   <g id="patch_39">
    <path d="M 367.898031 188.800023 
L 373.504912 188.800023 
L 373.504912 37.136922 
L 367.898031 37.136922 
z
" clip-path="url(#p7563939450)" style="fill: #2e8aa6; stroke: #ffffff; stroke-width: 0.3; stroke-linejoin: miter"/>
   </g>
   <g id="patch_40">
    <path d="M 408.923995 188.800023 
L 414.530877 188.800023 
L 414.530877 33.637661 
L 408.923995 33.637661 
z
" clip-path="url(#p7563939450)" style="fill: #2e8aa6; stroke: #ffffff; stroke-width: 0.3; stroke-linejoin: miter"/>
   </g>
   <g id="patch_41">
    <path d="M 449.94996 188.800023 
L 455.556842 188.800023 
L 455.556842 36.539487 
L 449.94996 36.539487 
z
" clip-path="url(#p7563939450)" style="fill: #2e8aa6; stroke: #ffffff; stroke-width: 0.3; stroke-linejoin: miter"/>
   </g>
   <g id="patch_42">
    <path d="M 490.975924 188.800023 
L 496.582806 188.800023 
L 496.582806 33.637661 
L 490.975924 33.637661 
z
" clip-path="url(#p7563939450)" style="fill: #2e8aa6; stroke: #ffffff; stroke-width: 0.3; stroke-linejoin: miter"/>
   </g>
   <g id="patch_43">
    <path d="M 332.478948 188.800023 
L 338.08583 188.800023 
L 338.08583 188.800023 
L 332.478948 188.800023 
z
" clip-path="url(#p7563939450)" style="fill: #c7ccd1; stroke: #ffffff; stroke-width: 0.3; stroke-linejoin: miter"/>
   </g>
   <g id="patch_44">
    <path d="M 373.504912 188.800023 
L 379.111794 188.800023 
L 379.111794 188.800023 
L 373.504912 188.800023 
z
" clip-path="url(#p7563939450)" style="fill: #c7ccd1; stroke: #ffffff; stroke-width: 0.3; stroke-linejoin: miter"/>
   </g>
   <g id="patch_45">
    <path d="M 414.530877 188.800023 
L 420.137759 188.800023 
L 420.137759 188.800023 
L 414.530877 188.800023 
z
" clip-path="url(#p7563939450)" style="fill: #c7ccd1; stroke: #ffffff; stroke-width: 0.3; stroke-linejoin: miter"/>
   </g>
   <g id="patch_46">
    <path d="M 455.556842 188.800023 
L 461.163723 188.800023 
L 461.163723 188.800023 
L 455.556842 188.800023 
z
" clip-path="url(#p7563939450)" style="fill: #c7ccd1; stroke: #ffffff; stroke-width: 0.3; stroke-linejoin: miter"/>
   </g>
   <g id="patch_47">
    <path d="M 496.582806 188.800023 
L 502.189688 188.800023 
L 502.189688 188.800023 
L 496.582806 188.800023 
z
" clip-path="url(#p7563939450)" style="fill: #c7ccd1; stroke: #ffffff; stroke-width: 0.3; stroke-linejoin: miter"/>
   </g>
   <g id="patch_48">
    <path d="M 338.08583 188.800023 
L 343.692712 188.800023 
L 343.692712 188.800023 
L 338.08583 188.800023 
z
" clip-path="url(#p7563939450)" style="fill: #a7afb6; stroke: #ffffff; stroke-width: 0.3; stroke-linejoin: miter"/>
   </g>
   <g id="patch_49">
    <path d="M 379.111794 188.800023 
L 384.718676 188.800023 
L 384.718676 188.800023 
L 379.111794 188.800023 
z
" clip-path="url(#p7563939450)" style="fill: #a7afb6; stroke: #ffffff; stroke-width: 0.3; stroke-linejoin: miter"/>
   </g>
   <g id="patch_50">
    <path d="M 420.137759 188.800023 
L 425.744641 188.800023 
L 425.744641 188.800023 
L 420.137759 188.800023 
z
" clip-path="url(#p7563939450)" style="fill: #a7afb6; stroke: #ffffff; stroke-width: 0.3; stroke-linejoin: miter"/>
   </g>
   <g id="patch_51">
    <path d="M 461.163723 188.800023 
L 466.770605 188.800023 
L 466.770605 188.800023 
L 461.163723 188.800023 
z
" clip-path="url(#p7563939450)" style="fill: #a7afb6; stroke: #ffffff; stroke-width: 0.3; stroke-linejoin: miter"/>
   </g>
   <g id="patch_52">
    <path d="M 502.189688 188.800023 
L 507.79657 188.800023 
L 507.79657 188.800023 
L 502.189688 188.800023 
z
" clip-path="url(#p7563939450)" style="fill: #a7afb6; stroke: #ffffff; stroke-width: 0.3; stroke-linejoin: miter"/>
   </g>
   <g id="patch_53">
    <path d="M 343.692712 188.800023 
L 349.299593 188.800023 
L 349.299593 188.800023 
L 343.692712 188.800023 
z
" clip-path="url(#p7563939450)" style="fill: #7e8893; stroke: #ffffff; stroke-width: 0.3; stroke-linejoin: miter"/>
   </g>
   <g id="patch_54">
    <path d="M 384.718676 188.800023 
L 390.325558 188.800023 
L 390.325558 188.800023 
L 384.718676 188.800023 
z
" clip-path="url(#p7563939450)" style="fill: #7e8893; stroke: #ffffff; stroke-width: 0.3; stroke-linejoin: miter"/>
   </g>
   <g id="patch_55">
    <path d="M 425.744641 188.800023 
L 431.351522 188.800023 
L 431.351522 188.800023 
L 425.744641 188.800023 
z
" clip-path="url(#p7563939450)" style="fill: #7e8893; stroke: #ffffff; stroke-width: 0.3; stroke-linejoin: miter"/>
   </g>
   <g id="patch_56">
    <path d="M 466.770605 188.800023 
L 472.377487 188.800023 
L 472.377487 188.800023 
L 466.770605 188.800023 
z
" clip-path="url(#p7563939450)" style="fill: #7e8893; stroke: #ffffff; stroke-width: 0.3; stroke-linejoin: miter"/>
   </g>
   <g id="patch_57">
    <path d="M 507.79657 188.800023 
L 513.403452 188.800023 
L 513.403452 188.800023 
L 507.79657 188.800023 
z
" clip-path="url(#p7563939450)" style="fill: #7e8893; stroke: #ffffff; stroke-width: 0.3; stroke-linejoin: miter"/>
   </g>
   <g id="patch_58">
    <path d="M 349.299593 188.800023 
L 354.906475 188.800023 
L 354.906475 188.800023 
L 349.299593 188.800023 
z
" clip-path="url(#p7563939450)" style="fill: #5b6670; stroke: #ffffff; stroke-width: 0.3; stroke-linejoin: miter"/>
   </g>
   <g id="patch_59">
    <path d="M 390.325558 188.800023 
L 395.93244 188.800023 
L 395.93244 188.800023 
L 390.325558 188.800023 
z
" clip-path="url(#p7563939450)" style="fill: #5b6670; stroke: #ffffff; stroke-width: 0.3; stroke-linejoin: miter"/>
   </g>
   <g id="patch_60">
    <path d="M 431.351522 188.800023 
L 436.958404 188.800023 
L 436.958404 188.800023 
L 431.351522 188.800023 
z
" clip-path="url(#p7563939450)" style="fill: #5b6670; stroke: #ffffff; stroke-width: 0.3; stroke-linejoin: miter"/>
   </g>
   <g id="patch_61">
    <path d="M 472.377487 188.800023 
L 477.984369 188.800023 
L 477.984369 188.800023 
L 472.377487 188.800023 
z
" clip-path="url(#p7563939450)" style="fill: #5b6670; stroke: #ffffff; stroke-width: 0.3; stroke-linejoin: miter"/>
   </g>
   <g id="patch_62">
    <path d="M 513.403452 188.800023 
L 519.010333 188.800023 
L 519.010333 188.800023 
L 513.403452 188.800023 
z
" clip-path="url(#p7563939450)" style="fill: #5b6670; stroke: #ffffff; stroke-width: 0.3; stroke-linejoin: miter"/>
   </g>
   <g id="patch_63">
    <path d="M 354.906475 188.800023 
L 360.513357 188.800023 
L 360.513357 30.053052 
L 354.906475 30.053052 
z
" clip-path="url(#p7563939450)" style="fill: #d39a3e; stroke: #ffffff; stroke-width: 0.3; stroke-linejoin: miter"/>
   </g>
   <g id="patch_64">
    <path d="M 395.93244 188.800023 
L 401.539322 188.800023 
L 401.539322 30.565139 
L 395.93244 30.565139 
z
" clip-path="url(#p7563939450)" style="fill: #d39a3e; stroke: #ffffff; stroke-width: 0.3; stroke-linejoin: miter"/>
   </g>
   <g id="patch_65">
    <path d="M 436.958404 188.800023 
L 442.565286 188.800023 
L 442.565286 36.112748 
L 436.958404 36.112748 
z
" clip-path="url(#p7563939450)" style="fill: #d39a3e; stroke: #ffffff; stroke-width: 0.3; stroke-linejoin: miter"/>
   </g>
   <g id="patch_66">
    <path d="M 477.984369 188.800023 
L 483.591251 188.800023 
L 483.591251 33.637661 
L 477.984369 33.637661 
z
" clip-path="url(#p7563939450)" style="fill: #d39a3e; stroke: #ffffff; stroke-width: 0.3; stroke-linejoin: miter"/>
   </g>
   <g id="patch_67">
    <path d="M 519.010333 188.800023 
L 524.617215 188.800023 
L 524.617215 33.210922 
L 519.010333 33.210922 
z
" clip-path="url(#p7563939450)" style="fill: #d39a3e; stroke: #ffffff; stroke-width: 0.3; stroke-linejoin: miter"/>
   </g>
   <g id="matplotlib.axis_3">
    <g id="xtick_6">
     <g id="line2d_11">
      <g>
       <use xlink:href="#m407701c5a5" x="343.692712" y="188.800023" style="stroke: #000000; stroke-width: 0.8"/>
      </g>
     </g>
     <g id="text_15">
      <text style="font: 8px 'Arial', 'Helvetica', 'DejaVu Sans', sans-serif; text-anchor: middle" x="343.692712" y="201.526273" transform="rotate(-0 343.692712 201.526273)">Medicine</text>
     </g>
    </g>
    <g id="xtick_7">
     <g id="line2d_12">
      <g>
       <use xlink:href="#m407701c5a5" x="384.718676" y="188.800023" style="stroke: #000000; stroke-width: 0.8"/>
      </g>
     </g>
     <g id="text_16">
      <text style="font: 8px 'Arial', 'Helvetica', 'DejaVu Sans', sans-serif; text-anchor: middle" x="384.718676" y="201.526273" transform="rotate(-0 384.718676 201.526273)">Genomics</text>
     </g>
    </g>
    <g id="xtick_8">
     <g id="line2d_13">
      <g>
       <use xlink:href="#m407701c5a5" x="425.744641" y="188.800023" style="stroke: #000000; stroke-width: 0.8"/>
      </g>
     </g>
     <g id="text_17">
      <text style="font: 8px 'Arial', 'Helvetica', 'DejaVu Sans', sans-serif; text-anchor: middle" x="425.744641" y="201.526273" transform="rotate(-0 425.744641 201.526273)">Finance</text>
     </g>
    </g>
    <g id="xtick_9">
     <g id="line2d_14">
      <g>
       <use xlink:href="#m407701c5a5" x="466.770605" y="188.800023" style="stroke: #000000; stroke-width: 0.8"/>
      </g>
     </g>
     <g id="text_18">
      <text style="font: 8px 'Arial', 'Helvetica', 'DejaVu Sans', sans-serif; text-anchor: middle" x="466.770605" y="201.623773" transform="rotate(-0 466.770605 201.623773)">Cyber</text>
     </g>
    </g>
    <g id="xtick_10">
     <g id="line2d_15">
      <g>
       <use xlink:href="#m407701c5a5" x="507.79657" y="188.800023" style="stroke: #000000; stroke-width: 0.8"/>
      </g>
     </g>
     <g id="text_19">
      <text style="font: 8px 'Arial', 'Helvetica', 'DejaVu Sans', sans-serif; text-anchor: middle" x="507.79657" y="201.526273" transform="rotate(-0 507.79657 201.526273)">Legal</text>
     </g>
    </g>
   </g>
   <g id="matplotlib.axis_4">
    <g id="ytick_6">
     <g id="line2d_16">
      <g>
       <use xlink:href="#mc39c7794b2" x="316.984809" y="188.800023" style="stroke: #000000; stroke-width: 0.8"/>
      </g>
     </g>
     <g id="text_20">
      <!-- $\mathdefault{0.000}$ -->
      <g transform="translate(289.904809 191.663148)">
       <text>
        <tspan style="font: 8px 'Arial'" x="0 4.449219 6.671875 11.121094 15.570312" y="-0.25">0.000</tspan>
       </text>
      </g>
     </g>
    </g>
    <g id="ytick_7">
     <g id="line2d_17">
      <g>
       <use xlink:href="#mc39c7794b2" x="316.984809" y="167.463065" style="stroke: #000000; stroke-width: 0.8"/>
      </g>
     </g>
     <g id="text_21">
      <!-- $\mathdefault{0.025}$ -->
      <g transform="translate(289.904809 170.32619)">
       <text>
        <tspan style="font: 8px 'Arial'" x="0 4.449219 6.671875 11.121094 15.570312" y="-0.25">0.025</tspan>
       </text>
      </g>
     </g>
    </g>
    <g id="ytick_8">
     <g id="line2d_18">
      <g>
       <use xlink:href="#mc39c7794b2" x="316.984809" y="146.126106" style="stroke: #000000; stroke-width: 0.8"/>
      </g>
     </g>
     <g id="text_22">
      <!-- $\mathdefault{0.050}$ -->
      <g transform="translate(289.904809 148.989231)">
       <text>
        <tspan style="font: 8px 'Arial'" x="0 4.449219 6.671875 11.121094 15.570312" y="-0.25">0.050</tspan>
       </text>
      </g>
     </g>
    </g>
    <g id="ytick_9">
     <g id="line2d_19">
      <g>
       <use xlink:href="#mc39c7794b2" x="316.984809" y="124.789148" style="stroke: #000000; stroke-width: 0.8"/>
      </g>
     </g>
     <g id="text_23">
      <!-- $\mathdefault{0.075}$ -->
      <g transform="translate(289.904809 127.652273)">
       <text>
        <tspan style="font: 8px 'Arial'" x="0 4.449219 6.671875 11.121094 15.570312" y="-0.25">0.075</tspan>
       </text>
      </g>
     </g>
    </g>
    <g id="ytick_10">
     <g id="line2d_20">
      <g>
       <use xlink:href="#mc39c7794b2" x="316.984809" y="103.452189" style="stroke: #000000; stroke-width: 0.8"/>
      </g>
     </g>
     <g id="text_24">
      <!-- $\mathdefault{0.100}$ -->
      <g transform="translate(289.904809 106.315314)">
       <text>
        <tspan style="font: 8px 'Arial'" x="0 4.449219 6.671875 11.121094 15.570312" y="-0.25">0.100</tspan>
       </text>
      </g>
     </g>
    </g>
    <g id="ytick_11">
     <g id="line2d_21">
      <g>
       <use xlink:href="#mc39c7794b2" x="316.984809" y="82.11523" style="stroke: #000000; stroke-width: 0.8"/>
      </g>
     </g>
     <g id="text_25">
      <!-- $\mathdefault{0.125}$ -->
      <g transform="translate(289.904809 84.978355)">
       <text>
        <tspan style="font: 8px 'Arial'" x="0 4.449219 6.671875 11.121094 15.570312" y="-0.25">0.125</tspan>
       </text>
      </g>
     </g>
    </g>
    <g id="ytick_12">
     <g id="line2d_22">
      <g>
       <use xlink:href="#mc39c7794b2" x="316.984809" y="60.778272" style="stroke: #000000; stroke-width: 0.8"/>
      </g>
     </g>
     <g id="text_26">
      <!-- $\mathdefault{0.150}$ -->
      <g transform="translate(289.904809 63.641397)">
       <text>
        <tspan style="font: 8px 'Arial'" x="0 4.449219 6.671875 11.121094 15.570312" y="-0.25">0.150</tspan>
       </text>
      </g>
     </g>
    </g>
    <g id="ytick_13">
     <g id="line2d_23">
      <g>
       <use xlink:href="#mc39c7794b2" x="316.984809" y="39.441313" style="stroke: #000000; stroke-width: 0.8"/>
      </g>
     </g>
     <g id="text_27">
      <!-- $\mathdefault{0.175}$ -->
      <g transform="translate(289.904809 42.304438)">
       <text>
        <tspan style="font: 8px 'Arial'" x="0 4.449219 6.671875 11.121094 15.570312" y="-0.25">0.175</tspan>
       </text>
      </g>
     </g>
    </g>
    <g id="text_28">
     <text style="font: 9px 'Arial', 'Helvetica', 'DejaVu Sans', sans-serif; text-anchor: middle" x="284.01059" y="105.457863" transform="rotate(-90 284.01059 105.457863)">Novelty-F1 (↑ better)</text>
    </g>
   </g>
   <g id="patch_68">
    <path d="M 316.984809 188.800023 
L 316.984809 22.115703 
" style="fill: none; stroke: #000000; stroke-width: 0.8; stroke-linejoin: miter; stroke-linecap: square"/>
   </g>
   <g id="patch_69">
    <path d="M 534.504473 188.800023 
L 534.504473 22.115703 
" style="fill: none; stroke: #000000; stroke-width: 0.8; stroke-linejoin: miter; stroke-linecap: square"/>
   </g>
   <g id="patch_70">
    <path d="M 316.984809 188.800023 
L 534.504473 188.800023 
" style="fill: none; stroke: #000000; stroke-width: 0.8; stroke-linejoin: miter; stroke-linecap: square"/>
   </g>
   <g id="patch_71">
    <path d="M 316.984809 22.115703 
L 534.504473 22.115703 
" style="fill: none; stroke: #000000; stroke-width: 0.8; stroke-linejoin: miter; stroke-linecap: square"/>
   </g>
   <g id="text_29">
    <text style="fill: #1a1f24; font: 700 11px 'Arial', 'Helvetica', 'DejaVu Sans', sans-serif; text-anchor: start" x="288.707252" y="16.654551" transform="rotate(-0 288.707252 16.654551)">b</text>
   </g>
   <g id="text_30">
    <text style="font: 9.5px 'Arial', 'Helvetica', 'DejaVu Sans', sans-serif; text-anchor: start" x="316.984809" y="14.115703" transform="rotate(-0 316.984809 14.115703)">Novelty-F1 per domain × memory</text>
   </g>
  </g>
  <g id="legend_1">
   <g id="patch_72">
    <path d="M 105.369238 244.119507 
L 114.369238 244.119507 
L 114.369238 238.869507 
L 105.369238 238.869507 
z
" style="fill: #2e8aa6; stroke: #ffffff; stroke-width: 0.3; stroke-linejoin: miter"/>
   </g>
   <g id="text_31">
    <text style="font: 7.5px 'Arial', 'Helvetica', 'DejaVu Sans', sans-serif; text-anchor: start" x="120.369238" y="244.119507" transform="rotate(-0 120.369238 244.119507)">SMA</text>
   </g>
   <g id="patch_73">
    <path d="M 144.121973 244.119507 
L 153.121973 244.119507 
L 153.121973 238.869507 
L 144.121973 238.869507 
z
" style="fill: #c7ccd1; stroke: #ffffff; stroke-width: 0.3; stroke-linejoin: miter"/>
   </g>
   <g id="text_32">
    <text style="font: 7.5px 'Arial', 'Helvetica', 'DejaVu Sans', sans-serif; text-anchor: start" x="159.121973" y="244.119507" transform="rotate(-0 159.121973 244.119507)">BM25</text>
   </g>
   <g id="patch_74">
    <path d="M 186.213379 244.119507 
L 195.213379 244.119507 
L 195.213379 238.869507 
L 186.213379 238.869507 
z
" style="fill: #a7afb6; stroke: #ffffff; stroke-width: 0.3; stroke-linejoin: miter"/>
   </g>
   <g id="text_33">
    <text style="font: 7.5px 'Arial', 'Helvetica', 'DejaVu Sans', sans-serif; text-anchor: start" x="201.213379" y="244.119507" transform="rotate(-0 201.213379 244.119507)">Dense-RAG</text>
   </g>
   <g id="patch_75">
    <path d="M 249.141895 244.119507 
L 258.141895 244.119507 
L 258.141895 238.869507 
L 249.141895 238.869507 
z
" style="fill: #7e8893; stroke: #ffffff; stroke-width: 0.3; stroke-linejoin: miter"/>
   </g>
   <g id="text_34">
    <text style="font: 7.5px 'Arial', 'Helvetica', 'DejaVu Sans', sans-serif; text-anchor: start" x="264.141895" y="244.119507" transform="rotate(-0 264.141895 244.119507)">Hybrid-RRF</text>
   </g>
   <g id="patch_76">
    <path d="M 311.224316 244.119507 
L 320.224316 244.119507 
L 320.224316 238.869507 
L 311.224316 238.869507 
z
" style="fill: #5b6670; stroke: #ffffff; stroke-width: 0.3; stroke-linejoin: miter"/>
   </g>
   <g id="text_35">
    <text style="font: 7.5px 'Arial', 'Helvetica', 'DejaVu Sans', sans-serif; text-anchor: start" x="326.224316" y="244.119507" transform="rotate(-0 326.224316 244.119507)">Hybrid+Rerank</text>
   </g>
   <g id="patch_77">
    <path d="M 383.952051 244.119507 
L 392.952051 244.119507 
L 392.952051 238.869507 
L 383.952051 238.869507 
z
" style="fill: #d39a3e; stroke: #ffffff; stroke-width: 0.3; stroke-linejoin: miter"/>
   </g>
   <g id="text_36">
    <text style="font: 7.5px 'Arial', 'Helvetica', 'DejaVu Sans', sans-serif; text-anchor: start" x="398.952051" y="244.119507" transform="rotate(-0 398.952051 244.119507)">HippoRAG</text>
   </g>
  </g>
 </g>
 <defs>
  <clipPath id="p13b67eea73">
   <rect x="37.845938" y="22.115703" width="217.519664" height="166.68432"/>
  </clipPath>
  <clipPath id="p7563939450">
   <rect x="316.984809" y="22.115703" width="217.519664" height="166.68432"/>
  </clipPath>
 </defs>
</svg>
