<?xml version="1.0" encoding="utf-8" standalone="no"?>
<!DOCTYPE svg PUBLIC "-//W3C//DTD SVG 1.1//EN"
  "http://www.w3.org/Graphics/SVG/1.1/DTD/svg11.dtd">
<svg xmlns:xlink="http://www.w3.org/1999/xlink" width="314.572207pt" height="228.280781pt" viewBox="0 0 314.572207 228.280781" xmlns="http://www.w3.org/2000/svg" version="1.1">
 <metadata>
  <rdf:RDF xmlns:dc="http://purl.org/dc/elements/1.1/" xmlns:cc="http://creativecommons.org/ns#" xmlns:rdf="http://www.w3.org/1999/02/22-rdf-syntax-ns#">
   <cc:Work>
    <dc:type rdf:resource="http://purl.org/dc/dcmitype/StillImage"/>
    <dc:date>2026-06-13T21:24:16.523046</dc:date>
    <dc:format>image/svg+xml</dc:format>
    <dc:creator>
     <cc:Agent>
      <dc:title>Matplotlib v3.9.2, https://matplotlib.org/</dc:title>
     </cc:Agent>
    </dc:creator>
   </cc:Work>
  </rdf:RDF>
 </metadata>
 <defs>
  <style type="text/css">*{stroke-linejoin: round; stroke-linecap: butt}</style>
 </defs>
 <g id="figure_1">
  <g id="patch_1">
   <path d="M 0 228.280781 
L 314.572207 228.280781 
L 314.572207 0 
L 0 0 
z
" style="fill: #ffffff"/>
  </g>
  <g id="axes_1">
   <g id="patch_2">
    <path d="M 34.569063 197.11 
L 302.472207 197.11 
L 302.472207 19.02375 
L 34.569063 19.02375 
z
" style="fill: #ffffff"/>
   </g>
   <g id="line2d_1">
    <path d="M 34.569063 168.13565 
L 302.472207 168.13565 
" clip-path="url(#p378e70c877)" style="fill: none; stroke-dasharray: 0.8,1.32; stroke-dashoffset: 0; stroke: #c7ccd1; stroke-width: 0.8"/>
   </g>
   <g id="matplotlib.axis_1">
    <g id="xtick_1">
     <g id="line2d_2">
      <defs>
       <path id="m6d9c063e80" d="M 0 0 
L 0 3.5 
" style="stroke: #000000; stroke-width: 0.8"/>
      </defs>
      <g>
       <use xlink:href="#m6d9c063e80" x="34.569063" y="197.11" style="stroke: #000000; stroke-width: 0.8"/>
      </g>
     </g>
     <g id="text_1">
      <!-- $\mathdefault{0.0}$ -->
      <g transform="translate(29.669063 209.120469)">
       <text>
        <tspan style="font: 7px 'Arial'" x="0 3.893066 5.837891" y="-0.96875">0.0</tspan>
       </text>
      </g>
     </g>
    </g>
    <g id="xtick_2">
     <g id="line2d_3">
      <g>
       <use xlink:href="#m6d9c063e80" x="88.149691" y="197.11" style="stroke: #000000; stroke-width: 0.8"/>
      </g>
     </g>
     <g id="text_2">
      <!-- $\mathdefault{0.2}$ -->
      <g transform="translate(83.249691 209.120469)">
       <text>
        <tspan style="font: 7px 'Arial'" x="0 3.893066 5.837891" y="-0.96875">0.2</tspan>
       </text>
      </g>
     </g>
    </g>
    <g id="xtick_3">
     <g id="line2d_4">
      <g>
       <use xlink:href="#m6d9c063e80" x="141.73032" y="197.11" style="stroke: #000000; stroke-width: 0.8"/>
      </g>
     </g>
     <g id="text_3">
      <!-- $\mathdefault{0.4}$ -->
      <g transform="translate(136.83032 209.120469)">
       <text>
        <tspan style="font: 7px 'Arial'" x="0 3.893066 5.837891" y="-0.96875">0.4</tspan>
       </text>
      </g>
     </g>
    </g>
    <g id="xtick_4">
     <g id="line2d_5">
      <g>
       <use xlink:href="#m6d9c063e80" x="195.310949" y="197.11" style="stroke: #000000; stroke-width: 0.8"/>
      </g>
     </g>
     <g id="text_4">
      <!-- $\mathdefault{0.6}$ -->
      <g transform="translate(190.410949 209.120469)">
       <text>
        <tspan style="font: 7px 'Arial'" x="0 3.893066 5.837891" y="-0.96875">0.6</tspan>
       </text>
      </g>
     </g>
    </g>
    <g id="xtick_5">
     <g id="line2d_6">
      <g>
       <use xlink:href="#m6d9c063e80" x="248.891578" y="197.11" style="stroke: #000000; stroke-width: 0.8"/>
      </g>
     </g>
     <g id="text_5">
      <!-- $\mathdefault{0.8}$ -->
      <g transform="translate(243.991578 209.120469)">
       <text>
        <tspan style="font: 7px 'Arial'" x="0 3.893066 5.837891" y="-0.96875">0.8</tspan>
       </text>
      </g>
     </g>
    </g>
    <g id="xtick_6">
     <g id="line2d_7">
      <g>
       <use xlink:href="#m6d9c063e80" x="302.472207" y="197.11" style="stroke: #000000; stroke-width: 0.8"/>
      </g>
     </g>
     <g id="text_6">
      <!-- $\mathdefault{1.0}$ -->
      <g transform="translate(297.572207 209.120469)">
       <text>
        <tspan style="font: 7px 'Arial'" x="0 3.893066 5.837891" y="-0.96875">1.0</tspan>
       </text>
      </g>
     </g>
    </g>
    <g id="text_7">
     <text style="font: 7px 'Arial', 'Helvetica', 'DejaVu Sans', sans-serif; text-anchor: middle" x="168.520635" y="219.6075" transform="rotate(-0 168.520635 219.6075)">Coverage fraction (fraction of questions answered)</text>
    </g>
   </g>
   <g id="matplotlib.axis_2">
    <g id="ytick_1">
     <g id="line2d_8">
      <defs>
       <path id="m7afbfe017d" d="M 0 0 
L -3.5 0 
" style="stroke: #000000; stroke-width: 0.8"/>
      </defs>
      <g>
       <use xlink:href="#m7afbfe017d" x="34.569063" y="197.11" style="stroke: #000000; stroke-width: 0.8"/>
      </g>
     </g>
     <g id="text_8">
      <!-- $\mathdefault{0.0}$ -->
      <g transform="translate(17.769063 199.615234)">
       <text>
        <tspan style="font: 7px 'Arial'" x="0 3.893066 5.837891" y="-0.96875">0.0</tspan>
       </text>
      </g>
     </g>
    </g>
    <g id="ytick_2">
     <g id="line2d_9">
      <g>
       <use xlink:href="#m7afbfe017d" x="34.569063" y="163.18881" style="stroke: #000000; stroke-width: 0.8"/>
      </g>
     </g>
     <g id="text_9">
      <!-- $\mathdefault{0.2}$ -->
      <g transform="translate(17.769063 165.694044)">
       <text>
        <tspan style="font: 7px 'Arial'" x="0 3.893066 5.837891" y="-0.96875">0.2</tspan>
       </text>
      </g>
     </g>
    </g>
    <g id="ytick_3">
     <g id="line2d_10">
      <g>
       <use xlink:href="#m7afbfe017d" x="34.569063" y="129.267619" style="stroke: #000000; stroke-width: 0.8"/>
      </g>
     </g>
     <g id="text_10">
      <!-- $\mathdefault{0.4}$ -->
      <g transform="translate(17.769063 131.772853)">
       <text>
        <tspan style="font: 7px 'Arial'" x="0 3.893066 5.837891" y="-0.96875">0.4</tspan>
       </text>
      </g>
     </g>
    </g>
    <g id="ytick_4">
     <g id="line2d_11">
      <g>
       <use xlink:href="#m7afbfe017d" x="34.569063" y="95.346429" style="stroke: #000000; stroke-width: 0.8"/>
      </g>
     </g>
     <g id="text_11">
      <!-- $\mathdefault{0.6}$ -->
      <g transform="translate(17.769063 97.851663)">
       <text>
        <tspan style="font: 7px 'Arial'" x="0 3.893066 5.837891" y="-0.96875">0.6</tspan>
       </text>
      </g>
     </g>
    </g>
    <g id="ytick_5">
     <g id="line2d_12">
      <g>
       <use xlink:href="#m7afbfe017d" x="34.569063" y="61.425238" style="stroke: #000000; stroke-width: 0.8"/>
      </g>
     </g>
     <g id="text_12">
      <!-- $\mathdefault{0.8}$ -->
      <g transform="translate(17.769063 63.930472)">
       <text>
        <tspan style="font: 7px 'Arial'" x="0 3.893066 5.837891" y="-0.96875">0.8</tspan>
       </text>
      </g>
     </g>
    </g>
    <g id="ytick_6">
     <g id="line2d_13">
      <g>
       <use xlink:href="#m7afbfe017d" x="34.569063" y="27.504048" style="stroke: #000000; stroke-width: 0.8"/>
      </g>
     </g>
     <g id="text_13">
      <!-- $\mathdefault{1.0}$ -->
      <g transform="translate(17.769063 30.009282)">
       <text>
        <tspan style="font: 7px 'Arial'" x="0 3.893066 5.837891" y="-0.96875">1.0</tspan>
       </text>
      </g>
     </g>
    </g>
    <g id="text_14">
     <text style="font: 7px 'Arial', 'Helvetica', 'DejaVu Sans', sans-serif; text-anchor: middle" x="12.295781" y="108.066875" transform="rotate(-90 12.295781 108.066875)">Selective accuracy</text>
    </g>
   </g>
   <g id="line2d_14">
    <path d="M 35.685326 27.504048 
L 36.801589 27.504048 
L 37.917852 84.039365 
L 39.034115 69.905536 
L 40.150378 95.346429 
L 41.266641 84.039365 
L 42.382904 100.192313 
L 43.499167 112.307024 
L 44.61543 102.884471 
L 45.731694 112.307024 
L 46.847957 104.597662 
L 47.96422 98.173194 
L 49.080483 105.783718 
L 50.196746 100.192313 
L 51.313009 95.346429 
L 52.429272 101.706652 
L 53.545535 97.341793 
L 54.661798 93.461918 
L 55.778061 89.990451 
L 56.894325 95.346429 
L 59.126851 89.178939 
L 61.359377 84.039365 
L 62.47564 81.777952 
L 63.591903 86.2138 
L 65.824429 82.020247 
L 66.940692 85.988859 
L 69.173219 82.215645 
L 70.289482 85.806094 
L 72.522008 82.376562 
L 74.754534 79.328089 
L 75.870797 77.927439 
L 78.103323 84.039365 
L 79.219587 82.625982 
L 80.33585 85.418275 
L 81.452113 84.039365 
L 83.684639 89.178939 
L 84.800902 91.577407 
L 87.033428 88.850881 
L 88.149691 91.10628 
L 89.265955 89.808275 
L 91.498481 94.016186 
L 93.731007 97.906518 
L 94.84727 96.602769 
L 95.963533 98.430173 
L 97.079796 97.163635 
L 98.196059 98.91708 
L 99.312322 97.685821 
L 101.544849 100.99996 
L 102.661112 99.795109 
L 106.009901 104.356745 
L 109.35869 108.509876 
L 110.474953 107.318613 
L 113.823743 111.112616 
L 114.940006 109.951386 
L 118.288795 113.43773 
L 121.637584 116.655894 
L 122.753848 115.52739 
L 124.986374 117.541775 
L 126.102637 116.443754 
L 127.2189 117.415637 
L 129.451426 115.30007 
L 133.916479 118.976921 
L 138.381531 122.337483 
L 142.846583 125.420886 
L 147.311636 128.260059 
L 152.892951 131.507698 
L 158.474267 134.462756 
L 164.055582 137.163069 
L 169.636898 139.640214 
L 176.334476 142.355322 
L 183.032055 144.825458 
L 190.845897 147.439685 
L 198.659739 149.804938 
L 207.589843 152.24649 
L 216.519948 154.44838 
L 226.566316 156.680674 
L 236.612684 158.690972 
L 247.775315 160.70244 
L 260.054209 162.685029 
L 273.449366 164.615402 
L 287.960787 166.476326 
L 302.472207 168.13565 
L 302.472207 168.13565 
" clip-path="url(#p378e70c877)" style="fill: none; stroke: #2e8aa6; stroke-width: 1.6; stroke-linecap: square"/>
   </g>
   <g id="line2d_15">
    <path d="M 35.685326 197.11 
L 37.917852 197.11 
L 39.034115 154.708512 
L 40.150378 163.18881 
L 41.266641 168.842341 
L 42.382904 148.651156 
L 43.499167 154.708512 
L 44.61543 159.419788 
L 45.731694 163.18881 
L 46.847957 166.272554 
L 47.96422 154.708512 
L 49.080483 157.970165 
L 50.196746 160.765867 
L 51.313009 163.18881 
L 52.429272 165.308884 
L 53.545535 157.202717 
L 55.778061 161.403484 
L 58.010588 164.804104 
L 60.243114 167.613313 
L 62.47564 169.973048 
L 64.708166 171.983192 
L 66.940692 173.716076 
L 68.056956 174.495873 
L 69.173219 169.754201 
L 70.289482 170.60907 
L 71.405745 166.272554 
L 73.638271 168.034694 
L 74.754534 164.131065 
L 76.98706 165.866798 
L 78.103323 162.319035 
L 81.452113 164.804104 
L 84.800902 166.957831 
L 88.149691 168.842341 
L 90.382218 169.973048 
L 91.498481 167.179538 
L 94.84727 168.842341 
L 99.312322 170.791835 
L 103.777375 172.489781 
L 109.35869 174.327111 
L 114.940006 175.909256 
L 121.637584 177.540082 
L 128.335163 178.937934 
L 136.149005 180.335785 
L 141.73032 181.209442 
L 142.846583 179.62485 
L 147.311636 180.317331 
L 149.544162 177.350083 
L 158.474267 178.774221 
L 168.520635 180.149405 
L 179.683266 181.454066 
L 193.078423 182.777103 
L 207.589843 183.979217 
L 224.33379 185.137815 
L 243.310263 186.226196 
L 265.635525 187.277771 
L 291.309576 188.260994 
L 302.472207 188.629702 
L 302.472207 188.629702 
" clip-path="url(#p378e70c877)" style="fill: none; stroke-dasharray: 4.44,1.92; stroke-dashoffset: 0; stroke: #a7afb6; stroke-width: 1.2"/>
   </g>
   <g id="patch_3">
    <path d="M 34.569063 197.11 
L 34.569063 19.02375 
" style="fill: none; stroke: #000000; stroke-width: 0.5; stroke-linejoin: miter; stroke-linecap: square"/>
   </g>
   <g id="patch_4">
    <path d="M 302.472207 197.11 
L 302.472207 19.02375 
" style="fill: none; stroke: #000000; stroke-width: 0.5; stroke-linejoin: miter; stroke-linecap: square"/>
   </g>
   <g id="patch_5">
    <path d="M 34.569063 197.11 
L 302.472207 197.11 
" style="fill: none; stroke: #000000; stroke-width: 0.5; stroke-linejoin: miter; stroke-linecap: square"/>
   </g>
   <g id="patch_6">
    <path d="M 34.569063 19.02375 
L 302.472207 19.02375 
" style="fill: none; stroke: #000000; stroke-width: 0.5; stroke-linejoin: miter; stroke-linecap: square"/>
   </g>
   <g id="text_15">
    <text style="fill: #2e8aa6; font: 6px 'Arial', 'Helvetica', 'DejaVu Sans', sans-serif; text-anchor: end" x="294.435113" y="175.73965" transform="rotate(-0 294.435113 175.73965)">SMA AURC=0.6253</text>
   </g>
   <g id="text_16">
    <text style="font: 8px 'Arial', 'Helvetica', 'DejaVu Sans', sans-serif; text-anchor: start" x="34.569063" y="13.02375" transform="rotate(-0 34.569063 13.02375)">ED   Phase 5 risk-coverage (selective prediction)</text>
   </g>
   <g id="legend_1">
    <g id="line2d_16">
     <path d="M 217.61752 26.052578 
L 223.11752 26.052578 
L 228.61752 26.052578 
" style="fill: none; stroke: #2e8aa6; stroke-width: 1.6; stroke-linecap: square"/>
    </g>
    <g id="text_17">
     <text style="font: 5.5px 'Arial', 'Helvetica', 'DejaVu Sans', sans-serif; text-anchor: start" x="233.01752" y="27.977578" transform="rotate(-0 233.01752 27.977578)">SMA (grounding score)</text>
    </g>
    <g id="line2d_17">
     <path d="M 217.61752 33.963984 
L 223.11752 33.963984 
L 228.61752 33.963984 
" style="fill: none; stroke-dasharray: 4.44,1.92; stroke-dashoffset: 0; stroke: #a7afb6; stroke-width: 1.2"/>
    </g>
    <g id="text_18">
     <text style="font: 5.5px 'Arial', 'Helvetica', 'DejaVu Sans', sans-serif; text-anchor: start" x="233.01752" y="35.888984" transform="rotate(-0 233.01752 35.888984)">Dense-RAG (confidence)</text>
    </g>
    <g id="line2d_18">
     <path d="M 217.61752 41.875391 
L 223.11752 41.875391 
L 228.61752 41.875391 
" style="fill: none; stroke-dasharray: 0.8,1.32; stroke-dashoffset: 0; stroke: #c7ccd1; stroke-width: 0.8"/>
    </g>
    <g id="text_19">
     <text style="font: 5.5px 'Arial', 'Helvetica', 'DejaVu Sans', sans-serif; text-anchor: start" x="233.01752" y="43.800391" transform="rotate(-0 233.01752 43.800391)">No-abstain baseline (0.17)</text>
    </g>
   </g>
  </g>
 </g>
 <defs>
  <clipPath id="p378e70c877">
   <rect x="34.569063" y="19.02375" width="267.903145" height="178.08625"/>
  </clipPath>
 </defs>
</svg>
