<?xml version="1.0" encoding="utf-8" standalone="no"?>
<!DOCTYPE svg PUBLIC "-//W3C//DTD SVG 1.1//EN"
  "http://www.w3.org/Graphics/SVG/1.1/DTD/svg11.dtd">
<svg xmlns:xlink="http://www.w3.org/1999/xlink" width="353.974365pt" height="239.195391pt" viewBox="0 0 353.974365 239.195391" xmlns="http://www.w3.org/2000/svg" version="1.1">
 <metadata>
  <rdf:RDF xmlns:dc="http://purl.org/dc/elements/1.1/" xmlns:cc="http://creativecommons.org/ns#" xmlns:rdf="http://www.w3.org/1999/02/22-rdf-syntax-ns#">
   <cc:Work>
    <dc:type rdf:resource="http://purl.org/dc/dcmitype/StillImage"/>
    <dc:date>2026-06-13T22:10:13.249105</dc:date>
    <dc:format>image/svg+xml</dc:format>
    <dc:creator>
     <cc:Agent>
      <dc:title>Matplotlib v3.9.2, https://matplotlib.org/</dc:title>
     </cc:Agent>
    </dc:creator>
   </cc:Work>
  </rdf:RDF>
 </metadata>
 <defs>
  <style type="text/css">*{stroke-linejoin: round; stroke-linecap: butt}</style>
 </defs>
 <g id="figure_1">
  <g id="patch_1">
   <path d="M 0 239.195391 
L 353.974365 239.195391 
L 353.974365 0 
L 0 0 
z
" style="fill: #ffffff"/>
  </g>
  <g id="axes_1">
   <g id="patch_2">
    <path d="M 37.845938 205.233203 
L 341.174365 205.233203 
L 341.174365 22.115703 
L 37.845938 22.115703 
z
" style="fill: #ffffff"/>
   </g>
   <g id="line2d_1">
    <path d="M 37.845938 175.440277 
L 341.174365 175.440277 
" clip-path="url(#pd8850eb8f1)" style="fill: none; stroke-dasharray: 0.8,1.32; stroke-dashoffset: 0; stroke: #c7ccd1; stroke-width: 0.8"/>
   </g>
   <g id="matplotlib.axis_1">
    <g id="xtick_1">
     <g id="line2d_2">
      <defs>
       <path id="me5f301b65a" d="M 0 0 
L 0 3.5 
" style="stroke: #000000; stroke-width: 0.8"/>
      </defs>
      <g>
       <use xlink:href="#me5f301b65a" x="37.845938" y="205.233203" style="stroke: #000000; stroke-width: 0.8"/>
      </g>
     </g>
     <g id="text_1">
      <!-- $\mathdefault{0.0}$ -->
      <g transform="translate(32.245938 217.959453)">
       <text>
        <tspan style="font: 8px 'Arial'" x="0 4.449219 6.671875" y="-0.25">0.0</tspan>
       </text>
      </g>
     </g>
    </g>
    <g id="xtick_2">
     <g id="line2d_3">
      <g>
       <use xlink:href="#me5f301b65a" x="98.511623" y="205.233203" style="stroke: #000000; stroke-width: 0.8"/>
      </g>
     </g>
     <g id="text_2">
      <!-- $\mathdefault{0.2}$ -->
      <g transform="translate(92.911623 217.959453)">
       <text>
        <tspan style="font: 8px 'Arial'" x="0 4.449219 6.671875" y="-0.25">0.2</tspan>
       </text>
      </g>
     </g>
    </g>
    <g id="xtick_3">
     <g id="line2d_4">
      <g>
       <use xlink:href="#me5f301b65a" x="159.177309" y="205.233203" style="stroke: #000000; stroke-width: 0.8"/>
      </g>
     </g>
     <g id="text_3">
      <!-- $\mathdefault{0.4}$ -->
      <g transform="translate(153.577309 217.959453)">
       <text>
        <tspan style="font: 8px 'Arial'" x="0 4.449219 6.671875" y="-0.25">0.4</tspan>
       </text>
      </g>
     </g>
    </g>
    <g id="xtick_4">
     <g id="line2d_5">
      <g>
       <use xlink:href="#me5f301b65a" x="219.842994" y="205.233203" style="stroke: #000000; stroke-width: 0.8"/>
      </g>
     </g>
     <g id="text_4">
      <!-- $\mathdefault{0.6}$ -->
      <g transform="translate(214.242994 217.959453)">
       <text>
        <tspan style="font: 8px 'Arial'" x="0 4.449219 6.671875" y="-0.25">0.6</tspan>
       </text>
      </g>
     </g>
    </g>
    <g id="xtick_5">
     <g id="line2d_6">
      <g>
       <use xlink:href="#me5f301b65a" x="280.50868" y="205.233203" style="stroke: #000000; stroke-width: 0.8"/>
      </g>
     </g>
     <g id="text_5">
      <!-- $\mathdefault{0.8}$ -->
      <g transform="translate(274.90868 217.959453)">
       <text>
        <tspan style="font: 8px 'Arial'" x="0 4.449219 6.671875" y="-0.25">0.8</tspan>
       </text>
      </g>
     </g>
    </g>
    <g id="xtick_6">
     <g id="line2d_7">
      <g>
       <use xlink:href="#me5f301b65a" x="341.174365" y="205.233203" style="stroke: #000000; stroke-width: 0.8"/>
      </g>
     </g>
     <g id="text_6">
      <!-- $\mathdefault{1.0}$ -->
      <g transform="translate(335.574365 217.959453)">
       <text>
        <tspan style="font: 8px 'Arial'" x="0 4.449219 6.671875" y="-0.25">1.0</tspan>
       </text>
      </g>
     </g>
    </g>
    <g id="text_7">
     <text style="font: 9px 'Arial', 'Helvetica', 'DejaVu Sans', sans-serif; text-anchor: middle" x="189.510151" y="230.101172" transform="rotate(-0 189.510151 230.101172)">Coverage fraction (fraction of questions answered)</text>
    </g>
   </g>
   <g id="matplotlib.axis_2">
    <g id="ytick_1">
     <g id="line2d_8">
      <defs>
       <path id="me7a68f141e" d="M 0 0 
L -3.5 0 
" style="stroke: #000000; stroke-width: 0.8"/>
      </defs>
      <g>
       <use xlink:href="#me7a68f141e" x="37.845938" y="205.233203" style="stroke: #000000; stroke-width: 0.8"/>
      </g>
     </g>
     <g id="text_8">
      <!-- $\mathdefault{0.0}$ -->
      <g transform="translate(19.645938 208.096328)">
       <text>
        <tspan style="font: 8px 'Arial'" x="0 4.449219 6.671875" y="-0.25">0.0</tspan>
       </text>
      </g>
     </g>
    </g>
    <g id="ytick_2">
     <g id="line2d_9">
      <g>
       <use xlink:href="#me7a68f141e" x="37.845938" y="170.353679" style="stroke: #000000; stroke-width: 0.8"/>
      </g>
     </g>
     <g id="text_9">
      <!-- $\mathdefault{0.2}$ -->
      <g transform="translate(19.645938 173.216804)">
       <text>
        <tspan style="font: 8px 'Arial'" x="0 4.449219 6.671875" y="-0.25">0.2</tspan>
       </text>
      </g>
     </g>
    </g>
    <g id="ytick_3">
     <g id="line2d_10">
      <g>
       <use xlink:href="#me7a68f141e" x="37.845938" y="135.474156" style="stroke: #000000; stroke-width: 0.8"/>
      </g>
     </g>
     <g id="text_10">
      <!-- $\mathdefault{0.4}$ -->
      <g transform="translate(19.645938 138.337281)">
       <text>
        <tspan style="font: 8px 'Arial'" x="0 4.449219 6.671875" y="-0.25">0.4</tspan>
       </text>
      </g>
     </g>
    </g>
    <g id="ytick_4">
     <g id="line2d_11">
      <g>
       <use xlink:href="#me7a68f141e" x="37.845938" y="100.594632" style="stroke: #000000; stroke-width: 0.8"/>
      </g>
     </g>
     <g id="text_11">
      <!-- $\mathdefault{0.6}$ -->
      <g transform="translate(19.645938 103.457757)">
       <text>
        <tspan style="font: 8px 'Arial'" x="0 4.449219 6.671875" y="-0.25">0.6</tspan>
       </text>
      </g>
     </g>
    </g>
    <g id="ytick_5">
     <g id="line2d_12">
      <g>
       <use xlink:href="#me7a68f141e" x="37.845938" y="65.715108" style="stroke: #000000; stroke-width: 0.8"/>
      </g>
     </g>
     <g id="text_12">
      <!-- $\mathdefault{0.8}$ -->
      <g transform="translate(19.645938 68.578233)">
       <text>
        <tspan style="font: 8px 'Arial'" x="0 4.449219 6.671875" y="-0.25">0.8</tspan>
       </text>
      </g>
     </g>
    </g>
    <g id="ytick_6">
     <g id="line2d_13">
      <g>
       <use xlink:href="#me7a68f141e" x="37.845938" y="30.835584" style="stroke: #000000; stroke-width: 0.8"/>
      </g>
     </g>
     <g id="text_13">
      <!-- $\mathdefault{1.0}$ -->
      <g transform="translate(19.645938 33.698709)">
       <text>
        <tspan style="font: 8px 'Arial'" x="0 4.449219 6.671875" y="-0.25">1.0</tspan>
       </text>
      </g>
     </g>
    </g>
    <g id="text_14">
     <text style="font: 9px 'Arial', 'Helvetica', 'DejaVu Sans', sans-serif; text-anchor: middle" x="13.751719" y="113.674453" transform="rotate(-90 13.751719 113.674453)">Selective accuracy</text>
    </g>
   </g>
   <g id="line2d_14">
    <path d="M 39.109806 30.835584 
L 40.373674 30.835584 
L 41.637543 88.968124 
L 42.901411 74.434989 
L 44.16528 100.594632 
L 45.429148 88.968124 
L 46.693017 105.577421 
L 47.956885 118.034394 
L 49.220754 108.345637 
L 50.484622 118.034394 
L 51.74849 110.107229 
L 53.012359 103.501259 
L 54.276227 111.326793 
L 55.540096 105.577421 
L 56.803964 100.594632 
L 58.067833 107.134542 
L 59.331701 102.646368 
L 60.59557 98.65688 
L 61.859438 95.087338 
L 63.123306 100.594632 
L 65.651043 94.2529 
L 68.17878 88.968124 
L 69.442649 86.642822 
L 70.706517 91.203991 
L 73.234254 86.891962 
L 74.498123 90.972694 
L 77.025859 87.092881 
L 78.289728 90.784766 
L 80.817465 87.258343 
L 83.345202 84.123745 
L 84.60907 82.683525 
L 87.136807 88.968124 
L 88.400675 87.51481 
L 89.664544 90.385991 
L 90.928412 88.968124 
L 93.456149 94.2529 
L 94.720018 96.719129 
L 97.247755 93.915574 
L 98.511623 96.234691 
L 99.775491 94.900016 
L 102.303228 99.226807 
L 104.830965 103.227049 
L 106.094834 101.886466 
L 107.358702 103.765497 
L 108.622571 102.463178 
L 109.886439 104.266161 
L 111.150308 103.000116 
L 113.678044 106.407886 
L 114.941913 105.168995 
L 118.733518 109.859505 
L 122.525124 114.129969 
L 123.788992 112.905052 
L 127.580597 116.806241 
L 128.844466 115.612204 
L 132.636071 119.197044 
L 136.427677 122.506127 
L 137.691545 121.345741 
L 140.219282 123.417036 
L 141.48315 122.287994 
L 142.747019 123.287334 
L 145.274756 121.111999 
L 150.330229 124.892727 
L 155.385703 128.348231 
L 160.441177 131.518746 
L 165.496651 134.43813 
L 170.552125 137.135085 
L 176.871467 140.230454 
L 183.190809 143.056661 
L 189.510151 145.64735 
L 197.093362 148.484772 
L 204.676573 151.064246 
L 212.259783 153.419418 
L 221.106863 155.920773 
L 229.953942 158.19174 
L 240.064889 160.543813 
L 250.175837 162.671879 
L 261.550653 164.836015 
L 274.189337 166.996292 
L 286.828022 168.937252 
L 300.730575 170.856749 
L 315.896996 172.731829 
L 332.327286 174.54521 
L 341.174365 175.440277 
L 341.174365 175.440277 
" clip-path="url(#pd8850eb8f1)" style="fill: none; stroke: #2e8aa6; stroke-width: 1.8; stroke-linecap: square"/>
   </g>
   <g id="line2d_15">
    <path d="M 39.109806 205.233203 
L 41.637543 205.233203 
L 42.901411 161.633798 
L 44.16528 170.353679 
L 45.429148 176.166933 
L 46.693017 155.405312 
L 47.956885 161.633798 
L 49.220754 166.478177 
L 50.484622 170.353679 
L 51.74849 173.524545 
L 53.012359 161.633798 
L 54.276227 164.987599 
L 55.540096 167.862285 
L 56.803964 170.353679 
L 58.067833 172.53365 
L 59.331701 164.198469 
L 60.59557 166.478177 
L 63.123306 170.353679 
L 65.651043 173.524545 
L 68.17878 176.166933 
L 70.706517 178.4028 
L 73.234254 180.319258 
L 75.761991 181.980187 
L 77.025859 177.104555 
L 78.289728 177.983575 
L 79.553596 173.524545 
L 82.081333 175.336468 
L 83.345202 171.322555 
L 85.872939 173.107326 
L 87.136807 169.459333 
L 90.928412 172.014609 
L 94.720018 174.229182 
L 98.511623 176.166933 
L 101.03936 177.329584 
L 102.303228 174.457153 
L 106.094834 176.166933 
L 111.150308 178.171504 
L 116.205781 179.91742 
L 121.261255 181.45171 
L 127.580597 183.126463 
L 133.89994 184.580854 
L 141.48315 186.092001 
L 150.330229 187.597489 
L 159.177309 188.883426 
L 160.441177 187.254067 
L 165.496651 187.966112 
L 168.024388 184.915034 
L 178.135335 186.379406 
L 189.510151 187.793441 
L 202.148836 189.134961 
L 216.051389 190.390853 
L 232.481679 191.643778 
L 251.439705 192.84994 
L 272.925469 193.981744 
L 298.202838 195.074119 
L 327.271812 196.094463 
L 341.174365 196.513322 
L 341.174365 196.513322 
" clip-path="url(#pd8850eb8f1)" style="fill: none; stroke-dasharray: 4.44,1.92; stroke-dashoffset: 0; stroke: #a7afb6; stroke-width: 1.2"/>
   </g>
   <g id="patch_3">
    <path d="M 37.845938 205.233203 
L 37.845938 22.115703 
" style="fill: none; stroke: #000000; stroke-width: 0.8; stroke-linejoin: miter; stroke-linecap: square"/>
   </g>
   <g id="patch_4">
    <path d="M 341.174365 205.233203 
L 341.174365 22.115703 
" style="fill: none; stroke: #000000; stroke-width: 0.8; stroke-linejoin: miter; stroke-linecap: square"/>
   </g>
   <g id="patch_5">
    <path d="M 37.845938 205.233203 
L 341.174365 205.233203 
" style="fill: none; stroke: #000000; stroke-width: 0.8; stroke-linejoin: miter; stroke-linecap: square"/>
   </g>
   <g id="patch_6">
    <path d="M 37.845938 22.115703 
L 341.174365 22.115703 
" style="fill: none; stroke: #000000; stroke-width: 0.8; stroke-linejoin: miter; stroke-linecap: square"/>
   </g>
   <g id="text_15">
    <text style="fill: #2e8aa6; font: 700 8.5px 'Arial', 'Helvetica', 'DejaVu Sans', sans-serif; text-anchor: end" x="332.074512" y="183.259103" transform="rotate(-0 332.074512 183.259103)">SMA AURC = 0.625</text>
   </g>
   <g id="text_16">
    <text style="font: 9.5px 'Arial', 'Helvetica', 'DejaVu Sans', sans-serif; text-anchor: start" x="37.845938" y="14.115703" transform="rotate(-0 37.845938 14.115703)">Phase 5 risk-coverage (selective prediction)</text>
   </g>
   <g id="legend_1">
    <g id="line2d_16">
     <path d="M 225.463428 31.700469 
L 232.963428 31.700469 
L 240.463428 31.700469 
" style="fill: none; stroke: #2e8aa6; stroke-width: 1.8; stroke-linecap: square"/>
    </g>
    <g id="text_17">
     <text style="font: 7.5px 'Arial', 'Helvetica', 'DejaVu Sans', sans-serif; text-anchor: start" x="246.463428" y="34.325469" transform="rotate(-0 246.463428 34.325469)">SMA (grounding score)</text>
    </g>
    <g id="line2d_17">
     <path d="M 225.463428 42.48875 
L 232.963428 42.48875 
L 240.463428 42.48875 
" style="fill: none; stroke-dasharray: 4.44,1.92; stroke-dashoffset: 0; stroke: #a7afb6; stroke-width: 1.2"/>
    </g>
    <g id="text_18">
     <text style="font: 7.5px 'Arial', 'Helvetica', 'DejaVu Sans', sans-serif; text-anchor: start" x="246.463428" y="45.11375" transform="rotate(-0 246.463428 45.11375)">Dense-RAG (confidence)</text>
    </g>
    <g id="line2d_18">
     <path d="M 225.463428 53.277031 
L 232.963428 53.277031 
L 240.463428 53.277031 
" style="fill: none; stroke-dasharray: 0.8,1.32; stroke-dashoffset: 0; stroke: #c7ccd1; stroke-width: 0.8"/>
    </g>
    <g id="text_19">
     <text style="font: 7.5px 'Arial', 'Helvetica', 'DejaVu Sans', sans-serif; text-anchor: start" x="246.463428" y="55.902031" transform="rotate(-0 246.463428 55.902031)">No-abstain baseline (0.17)</text>
    </g>
   </g>
  </g>
 </g>
 <defs>
  <clipPath id="pd8850eb8f1">
   <rect x="37.845938" y="22.115703" width="303.328428" height="183.1175"/>
  </clipPath>
 </defs>
</svg>
