<?xml version="1.0" encoding="utf-8" standalone="no"?>
<!DOCTYPE svg PUBLIC "-//W3C//DTD SVG 1.1//EN"
  "http://www.w3.org/Graphics/SVG/1.1/DTD/svg11.dtd">
<svg xmlns:xlink="http://www.w3.org/1999/xlink" width="515.778469pt" height="200.005391pt" viewBox="0 0 515.778469 200.005391" xmlns="http://www.w3.org/2000/svg" version="1.1">
 <metadata>
  <rdf:RDF xmlns:dc="http://purl.org/dc/elements/1.1/" xmlns:cc="http://creativecommons.org/ns#" xmlns:rdf="http://www.w3.org/1999/02/22-rdf-syntax-ns#">
   <cc:Work>
    <dc:type rdf:resource="http://purl.org/dc/dcmitype/StillImage"/>
    <dc:date>2026-06-13T18:22:16.784641</dc:date>
    <dc:format>image/svg+xml</dc:format>
    <dc:creator>
     <cc:Agent>
      <dc:title>Matplotlib v3.9.2, https://matplotlib.org/</dc:title>
     </cc:Agent>
    </dc:creator>
   </cc:Work>
  </rdf:RDF>
 </metadata>
 <defs>
  <style type="text/css">*{stroke-linejoin: round; stroke-linecap: butt}</style>
 </defs>
 <g id="figure_1">
  <g id="patch_1">
   <path d="M 0 200.005391 
L 515.778469 200.005391 
L 515.778469 0 
L 0 0 
z
" style="fill: #ffffff"/>
  </g>
  <g id="axes_1">
   <g id="patch_2">
    <path d="M 34.569063 151.9572 
L 328.103038 151.9572 
L 328.103038 19.02375 
L 34.569063 19.02375 
z
" style="fill: #ffffff"/>
   </g>
   <g id="patch_3">
    <path d="M 47.911516 151.9572 
L 55.477776 151.9572 
L 55.477776 25.816649 
L 47.911516 25.816649 
z
" clip-path="url(#pf90476bb13)" style="fill: #2e8aa6; stroke: #ffffff; stroke-width: 0.3; stroke-linejoin: miter"/>
   </g>
   <g id="patch_4">
    <path d="M 103.274393 151.9572 
L 110.840653 151.9572 
L 110.840653 39.096701 
L 103.274393 39.096701 
z
" clip-path="url(#pf90476bb13)" style="fill: #2e8aa6; stroke: #ffffff; stroke-width: 0.3; stroke-linejoin: miter"/>
   </g>
   <g id="patch_5">
    <path d="M 158.63727 151.9572 
L 166.20353 151.9572 
L 166.20353 96.351138 
L 158.63727 96.351138 
z
" clip-path="url(#pf90476bb13)" style="fill: #2e8aa6; stroke: #ffffff; stroke-width: 0.3; stroke-linejoin: miter"/>
   </g>
   <g id="patch_6">
    <path d="M 214.000148 151.9572 
L 221.566408 151.9572 
L 221.566408 50.170057 
L 214.000148 50.170057 
z
" clip-path="url(#pf90476bb13)" style="fill: #2e8aa6; stroke: #ffffff; stroke-width: 0.3; stroke-linejoin: miter"/>
   </g>
   <g id="patch_7">
    <path d="M 269.363025 151.9572 
L 276.929285 151.9572 
L 276.929285 26.81365 
L 269.363025 26.81365 
z
" clip-path="url(#pf90476bb13)" style="fill: #2e8aa6; stroke: #ffffff; stroke-width: 0.3; stroke-linejoin: miter"/>
   </g>
   <g id="patch_8">
    <path d="M 55.477776 151.9572 
L 63.044036 151.9572 
L 63.044036 87.431303 
L 55.477776 87.431303 
z
" clip-path="url(#pf90476bb13)" style="fill: #c7ccd1; stroke: #ffffff; stroke-width: 0.3; stroke-linejoin: miter"/>
   </g>
   <g id="patch_9">
    <path d="M 110.840653 151.9572 
L 118.406913 151.9572 
L 118.406913 78.564642 
L 110.840653 78.564642 
z
" clip-path="url(#pf90476bb13)" style="fill: #c7ccd1; stroke: #ffffff; stroke-width: 0.3; stroke-linejoin: miter"/>
   </g>
   <g id="patch_10">
    <path d="M 166.20353 151.9572 
L 173.76979 151.9572 
L 173.76979 118.723837 
L 166.20353 118.723837 
z
" clip-path="url(#pf90476bb13)" style="fill: #c7ccd1; stroke: #ffffff; stroke-width: 0.3; stroke-linejoin: miter"/>
   </g>
   <g id="patch_11">
    <path d="M 221.566408 151.9572 
L 229.132668 151.9572 
L 229.132668 58.518278 
L 221.566408 58.518278 
z
" clip-path="url(#pf90476bb13)" style="fill: #c7ccd1; stroke: #ffffff; stroke-width: 0.3; stroke-linejoin: miter"/>
   </g>
   <g id="patch_12">
    <path d="M 276.929285 151.9572 
L 284.495545 151.9572 
L 284.495545 62.918375 
L 276.929285 62.918375 
z
" clip-path="url(#pf90476bb13)" style="fill: #c7ccd1; stroke: #ffffff; stroke-width: 0.3; stroke-linejoin: miter"/>
   </g>
   <g id="patch_13">
    <path d="M 63.044036 151.9572 
L 70.610296 151.9572 
L 70.610296 85.969035 
L 63.044036 85.969035 
z
" clip-path="url(#pf90476bb13)" style="fill: #a7afb6; stroke: #ffffff; stroke-width: 0.3; stroke-linejoin: miter"/>
   </g>
   <g id="patch_14">
    <path d="M 118.406913 151.9572 
L 125.973173 151.9572 
L 125.973173 61.256707 
L 118.406913 61.256707 
z
" clip-path="url(#pf90476bb13)" style="fill: #a7afb6; stroke: #ffffff; stroke-width: 0.3; stroke-linejoin: miter"/>
   </g>
   <g id="patch_15">
    <path d="M 173.76979 151.9572 
L 181.33605 151.9572 
L 181.33605 127.032178 
L 173.76979 127.032178 
z
" clip-path="url(#pf90476bb13)" style="fill: #a7afb6; stroke: #ffffff; stroke-width: 0.3; stroke-linejoin: miter"/>
   </g>
   <g id="patch_16">
    <path d="M 229.132668 151.9572 
L 236.698927 151.9572 
L 236.698927 68.395233 
L 229.132668 68.395233 
z
" clip-path="url(#pf90476bb13)" style="fill: #a7afb6; stroke: #ffffff; stroke-width: 0.3; stroke-linejoin: miter"/>
   </g>
   <g id="patch_17">
    <path d="M 284.495545 151.9572 
L 292.061805 151.9572 
L 292.061805 36.251925 
L 284.495545 36.251925 
z
" clip-path="url(#pf90476bb13)" style="fill: #a7afb6; stroke: #ffffff; stroke-width: 0.3; stroke-linejoin: miter"/>
   </g>
   <g id="patch_18">
    <path d="M 70.610296 151.9572 
L 78.176556 151.9572 
L 78.176556 84.0415 
L 70.610296 84.0415 
z
" clip-path="url(#pf90476bb13)" style="fill: #7e8893; stroke: #ffffff; stroke-width: 0.3; stroke-linejoin: miter"/>
   </g>
   <g id="patch_19">
    <path d="M 125.973173 151.9572 
L 133.539433 151.9572 
L 133.539433 58.491691 
L 125.973173 58.491691 
z
" clip-path="url(#pf90476bb13)" style="fill: #7e8893; stroke: #ffffff; stroke-width: 0.3; stroke-linejoin: miter"/>
   </g>
   <g id="patch_20">
    <path d="M 181.33605 151.9572 
L 188.90231 151.9572 
L 188.90231 121.27616 
L 181.33605 121.27616 
z
" clip-path="url(#pf90476bb13)" style="fill: #7e8893; stroke: #ffffff; stroke-width: 0.3; stroke-linejoin: miter"/>
   </g>
   <g id="patch_21">
    <path d="M 236.698927 151.9572 
L 244.265187 151.9572 
L 244.265187 52.443219 
L 236.698927 52.443219 
z
" clip-path="url(#pf90476bb13)" style="fill: #7e8893; stroke: #ffffff; stroke-width: 0.3; stroke-linejoin: miter"/>
   </g>
   <g id="patch_22">
    <path d="M 292.061805 151.9572 
L 299.628065 151.9572 
L 299.628065 46.514387 
L 292.061805 46.514387 
z
" clip-path="url(#pf90476bb13)" style="fill: #7e8893; stroke: #ffffff; stroke-width: 0.3; stroke-linejoin: miter"/>
   </g>
   <g id="patch_23">
    <path d="M 78.176556 151.9572 
L 85.742815 151.9572 
L 85.742815 71.426116 
L 78.176556 71.426116 
z
" clip-path="url(#pf90476bb13)" style="fill: #5b6670; stroke: #ffffff; stroke-width: 0.3; stroke-linejoin: miter"/>
   </g>
   <g id="patch_24">
    <path d="M 133.539433 151.9572 
L 141.105693 151.9572 
L 141.105693 65.417524 
L 133.539433 65.417524 
z
" clip-path="url(#pf90476bb13)" style="fill: #5b6670; stroke: #ffffff; stroke-width: 0.3; stroke-linejoin: miter"/>
   </g>
   <g id="patch_25">
    <path d="M 188.90231 151.9572 
L 196.46857 151.9572 
L 196.46857 125.117936 
L 188.90231 125.117936 
z
" clip-path="url(#pf90476bb13)" style="fill: #5b6670; stroke: #ffffff; stroke-width: 0.3; stroke-linejoin: miter"/>
   </g>
   <g id="patch_26">
    <path d="M 244.265187 151.9572 
L 251.831447 151.9572 
L 251.831447 65.364351 
L 244.265187 65.364351 
z
" clip-path="url(#pf90476bb13)" style="fill: #5b6670; stroke: #ffffff; stroke-width: 0.3; stroke-linejoin: miter"/>
   </g>
   <g id="patch_27">
    <path d="M 299.628065 151.9572 
L 307.194325 151.9572 
L 307.194325 46.514387 
L 299.628065 46.514387 
z
" clip-path="url(#pf90476bb13)" style="fill: #5b6670; stroke: #ffffff; stroke-width: 0.3; stroke-linejoin: miter"/>
   </g>
   <g id="patch_28">
    <path d="M 85.742815 151.9572 
L 93.309075 151.9572 
L 93.309075 103.928345 
L 85.742815 103.928345 
z
" clip-path="url(#pf90476bb13)" style="fill: #d39a3e; stroke: #ffffff; stroke-width: 0.3; stroke-linejoin: miter"/>
   </g>
   <g id="patch_29">
    <path d="M 141.105693 151.9572 
L 148.671953 151.9572 
L 148.671953 109.724243 
L 141.105693 109.724243 
z
" clip-path="url(#pf90476bb13)" style="fill: #d39a3e; stroke: #ffffff; stroke-width: 0.3; stroke-linejoin: miter"/>
   </g>
   <g id="patch_30">
    <path d="M 196.46857 151.9572 
L 204.03483 151.9572 
L 204.03483 138.530922 
L 196.46857 138.530922 
z
" clip-path="url(#pf90476bb13)" style="fill: #d39a3e; stroke: #ffffff; stroke-width: 0.3; stroke-linejoin: miter"/>
   </g>
   <g id="patch_31">
    <path d="M 251.831447 151.9572 
L 259.397707 151.9572 
L 259.397707 101.827996 
L 251.831447 101.827996 
z
" clip-path="url(#pf90476bb13)" style="fill: #d39a3e; stroke: #ffffff; stroke-width: 0.3; stroke-linejoin: miter"/>
   </g>
   <g id="patch_32">
    <path d="M 307.194325 151.9572 
L 314.760584 151.9572 
L 314.760584 96.563831 
L 307.194325 96.563831 
z
" clip-path="url(#pf90476bb13)" style="fill: #d39a3e; stroke: #ffffff; stroke-width: 0.3; stroke-linejoin: miter"/>
   </g>
   <g id="matplotlib.axis_1">
    <g id="xtick_1">
     <g id="line2d_1">
      <defs>
       <path id="m4ca937a428" d="M 0 0 
L 0 3.5 
" style="stroke: #000000; stroke-width: 0.8"/>
      </defs>
      <g>
       <use xlink:href="#m4ca937a428" x="70.610296" y="151.9572" style="stroke: #000000; stroke-width: 0.8"/>
      </g>
     </g>
     <g id="text_1">
      <text style="font: 7px 'Arial', 'Helvetica', 'DejaVu Sans', sans-serif; text-anchor: middle" x="70.610296" y="163.967669" transform="rotate(-0 70.610296 163.967669)">Medicine</text>
     </g>
    </g>
    <g id="xtick_2">
     <g id="line2d_2">
      <g>
       <use xlink:href="#m4ca937a428" x="125.973173" y="151.9572" style="stroke: #000000; stroke-width: 0.8"/>
      </g>
     </g>
     <g id="text_2">
      <text style="font: 7px 'Arial', 'Helvetica', 'DejaVu Sans', sans-serif; text-anchor: middle" x="125.973173" y="163.967669" transform="rotate(-0 125.973173 163.967669)">Genomics</text>
     </g>
    </g>
    <g id="xtick_3">
     <g id="line2d_3">
      <g>
       <use xlink:href="#m4ca937a428" x="181.33605" y="151.9572" style="stroke: #000000; stroke-width: 0.8"/>
      </g>
     </g>
     <g id="text_3">
      <text style="font: 7px 'Arial', 'Helvetica', 'DejaVu Sans', sans-serif; text-anchor: middle" x="181.33605" y="163.967669" transform="rotate(-0 181.33605 163.967669)">Finance</text>
     </g>
    </g>
    <g id="xtick_4">
     <g id="line2d_4">
      <g>
       <use xlink:href="#m4ca937a428" x="236.698927" y="151.9572" style="stroke: #000000; stroke-width: 0.8"/>
      </g>
     </g>
     <g id="text_4">
      <text style="font: 7px 'Arial', 'Helvetica', 'DejaVu Sans', sans-serif; text-anchor: middle" x="236.698927" y="164.052981" transform="rotate(-0 236.698927 164.052981)">Cyber</text>
     </g>
    </g>
    <g id="xtick_5">
     <g id="line2d_5">
      <g>
       <use xlink:href="#m4ca937a428" x="292.061805" y="151.9572" style="stroke: #000000; stroke-width: 0.8"/>
      </g>
     </g>
     <g id="text_5">
      <text style="font: 7px 'Arial', 'Helvetica', 'DejaVu Sans', sans-serif; text-anchor: middle" x="292.061805" y="163.967669" transform="rotate(-0 292.061805 163.967669)">Legal†</text>
     </g>
    </g>
   </g>
   <g id="matplotlib.axis_2">
    <g id="ytick_1">
     <g id="line2d_6">
      <defs>
       <path id="mebaf5cd65e" d="M 0 0 
L -3.5 0 
" style="stroke: #000000; stroke-width: 0.8"/>
      </defs>
      <g>
       <use xlink:href="#mebaf5cd65e" x="34.569063" y="151.9572" style="stroke: #000000; stroke-width: 0.8"/>
      </g>
     </g>
     <g id="text_6">
      <!-- $\mathdefault{0.0}$ -->
      <g transform="translate(17.769063 154.462434)">
       <text>
        <tspan style="font: 7px 'Arial'" x="0 3.893066 5.837891" y="-0.96875">0.0</tspan>
       </text>
      </g>
     </g>
    </g>
    <g id="ytick_2">
     <g id="line2d_7">
      <g>
       <use xlink:href="#mebaf5cd65e" x="34.569063" y="125.37051" style="stroke: #000000; stroke-width: 0.8"/>
      </g>
     </g>
     <g id="text_7">
      <!-- $\mathdefault{0.2}$ -->
      <g transform="translate(17.769063 127.875744)">
       <text>
        <tspan style="font: 7px 'Arial'" x="0 3.893066 5.837891" y="-0.96875">0.2</tspan>
       </text>
      </g>
     </g>
    </g>
    <g id="ytick_3">
     <g id="line2d_8">
      <g>
       <use xlink:href="#mebaf5cd65e" x="34.569063" y="98.78382" style="stroke: #000000; stroke-width: 0.8"/>
      </g>
     </g>
     <g id="text_8">
      <!-- $\mathdefault{0.4}$ -->
      <g transform="translate(17.769063 101.289054)">
       <text>
        <tspan style="font: 7px 'Arial'" x="0 3.893066 5.837891" y="-0.96875">0.4</tspan>
       </text>
      </g>
     </g>
    </g>
    <g id="ytick_4">
     <g id="line2d_9">
      <g>
       <use xlink:href="#mebaf5cd65e" x="34.569063" y="72.19713" style="stroke: #000000; stroke-width: 0.8"/>
      </g>
     </g>
     <g id="text_9">
      <!-- $\mathdefault{0.6}$ -->
      <g transform="translate(17.769063 74.702364)">
       <text>
        <tspan style="font: 7px 'Arial'" x="0 3.893066 5.837891" y="-0.96875">0.6</tspan>
       </text>
      </g>
     </g>
    </g>
    <g id="ytick_5">
     <g id="line2d_10">
      <g>
       <use xlink:href="#mebaf5cd65e" x="34.569063" y="45.61044" style="stroke: #000000; stroke-width: 0.8"/>
      </g>
     </g>
     <g id="text_10">
      <!-- $\mathdefault{0.8}$ -->
      <g transform="translate(17.769063 48.115674)">
       <text>
        <tspan style="font: 7px 'Arial'" x="0 3.893066 5.837891" y="-0.96875">0.8</tspan>
       </text>
      </g>
     </g>
    </g>
    <g id="ytick_6">
     <g id="line2d_11">
      <g>
       <use xlink:href="#mebaf5cd65e" x="34.569063" y="19.02375" style="stroke: #000000; stroke-width: 0.8"/>
      </g>
     </g>
     <g id="text_11">
      <!-- $\mathdefault{1.0}$ -->
      <g transform="translate(17.769063 21.528984)">
       <text>
        <tspan style="font: 7px 'Arial'" x="0 3.893066 5.837891" y="-0.96875">1.0</tspan>
       </text>
      </g>
     </g>
    </g>
    <g id="text_12">
     <text style="font: 7px 'Arial', 'Helvetica', 'DejaVu Sans', sans-serif; text-anchor: middle" x="12.295781" y="85.490475" transform="rotate(-90 12.295781 85.490475)">Tail top-5 accuracy (rare slice)</text>
    </g>
   </g>
   <g id="patch_33">
    <path d="M 34.569063 151.9572 
L 34.569063 19.02375 
" style="fill: none; stroke: #000000; stroke-width: 0.5; stroke-linejoin: miter; stroke-linecap: square"/>
   </g>
   <g id="patch_34">
    <path d="M 328.103038 151.9572 
L 328.103038 19.02375 
" style="fill: none; stroke: #000000; stroke-width: 0.5; stroke-linejoin: miter; stroke-linecap: square"/>
   </g>
   <g id="patch_35">
    <path d="M 34.569062 151.9572 
L 328.103038 151.9572 
" style="fill: none; stroke: #000000; stroke-width: 0.5; stroke-linejoin: miter; stroke-linecap: square"/>
   </g>
   <g id="patch_36">
    <path d="M 34.569062 19.02375 
L 328.103038 19.02375 
" style="fill: none; stroke: #000000; stroke-width: 0.5; stroke-linejoin: miter; stroke-linecap: square"/>
   </g>
   <g id="text_13">
    <text style="fill: #5f6b78; font: italic 4.6px 'Arial', 'Helvetica', 'DejaVu Sans', sans-serif; text-anchor: start" x="34.569063" y="191.837235" transform="rotate(-0 34.569063 191.837235)">† all-query slice (rare slice undefined for CPC's uniform IC)</text>
   </g>
   <g id="text_14">
    <text style="font: 8px 'Arial', 'Helvetica', 'DejaVu Sans', sans-serif; text-anchor: start" x="34.569063" y="13.02375" transform="rotate(-0 34.569063 13.02375)">a   SMA vs enterprise RAG/KG, by domain</text>
   </g>
   <g id="legend_1">
    <g id="patch_37">
     <path d="M 113.586831 181.305458 
L 123.586831 181.305458 
L 123.586831 177.805458 
L 113.586831 177.805458 
z
" style="fill: #2e8aa6; stroke: #ffffff; stroke-width: 0.3; stroke-linejoin: miter"/>
    </g>
    <g id="text_15">
     <text style="font: 5px 'Arial', 'Helvetica', 'DejaVu Sans', sans-serif; text-anchor: start" x="127.586831" y="181.305458" transform="rotate(-0 127.586831 181.305458)">SMA</text>
    </g>
    <g id="patch_38">
     <path d="M 113.586831 188.378114 
L 123.586831 188.378114 
L 123.586831 184.878114 
L 113.586831 184.878114 
z
" style="fill: #c7ccd1; stroke: #ffffff; stroke-width: 0.3; stroke-linejoin: miter"/>
    </g>
    <g id="text_16">
     <text style="font: 5px 'Arial', 'Helvetica', 'DejaVu Sans', sans-serif; text-anchor: start" x="127.586831" y="188.378114" transform="rotate(-0 127.586831 188.378114)">BM25</text>
    </g>
    <g id="patch_39">
     <path d="M 150.647769 181.305458 
L 160.647769 181.305458 
L 160.647769 177.805458 
L 150.647769 177.805458 
z
" style="fill: #a7afb6; stroke: #ffffff; stroke-width: 0.3; stroke-linejoin: miter"/>
    </g>
    <g id="text_17">
     <text style="font: 5px 'Arial', 'Helvetica', 'DejaVu Sans', sans-serif; text-anchor: start" x="164.647769" y="181.305458" transform="rotate(-0 164.647769 181.305458)">Dense-RAG</text>
    </g>
    <g id="patch_40">
     <path d="M 150.647769 188.378114 
L 160.647769 188.378114 
L 160.647769 184.878114 
L 150.647769 184.878114 
z
" style="fill: #7e8893; stroke: #ffffff; stroke-width: 0.3; stroke-linejoin: miter"/>
    </g>
    <g id="text_18">
     <text style="font: 5px 'Arial', 'Helvetica', 'DejaVu Sans', sans-serif; text-anchor: start" x="164.647769" y="188.378114" transform="rotate(-0 164.647769 188.378114)">Hybrid-RRF</text>
    </g>
    <g id="patch_41">
     <path d="M 201.600113 181.305458 
L 211.600113 181.305458 
L 211.600113 177.805458 
L 201.600113 177.805458 
z
" style="fill: #5b6670; stroke: #ffffff; stroke-width: 0.3; stroke-linejoin: miter"/>
    </g>
    <g id="text_19">
     <text style="font: 5px 'Arial', 'Helvetica', 'DejaVu Sans', sans-serif; text-anchor: start" x="215.600113" y="181.305458" transform="rotate(-0 215.600113 181.305458)">Hybrid+Rerank</text>
    </g>
    <g id="patch_42">
     <path d="M 201.600113 188.497646 
L 211.600113 188.497646 
L 211.600113 184.997646 
L 201.600113 184.997646 
z
" style="fill: #d39a3e; stroke: #ffffff; stroke-width: 0.3; stroke-linejoin: miter"/>
    </g>
    <g id="text_20">
     <text style="font: 5px 'Arial', 'Helvetica', 'DejaVu Sans', sans-serif; text-anchor: start" x="215.600113" y="188.497646" transform="rotate(-0 215.600113 188.497646)">HippoRAG</text>
    </g>
   </g>
  </g>
  <g id="axes_2">
   <g id="patch_43">
    <path d="M 372.783038 151.9572 
L 506.207572 151.9572 
L 506.207572 19.02375 
L 372.783038 19.02375 
z
" style="fill: #ffffff"/>
   </g>
   <g id="matplotlib.axis_3">
    <g id="xtick_6">
     <g id="line2d_12">
      <g>
       <use xlink:href="#m4ca937a428" x="376.267722" y="151.9572" style="stroke: #000000; stroke-width: 0.8"/>
      </g>
     </g>
     <g id="text_21">
      <!-- $\mathdefault{0.0}$ -->
      <g transform="translate(371.367722 163.967669)">
       <text>
        <tspan style="font: 7px 'Arial'" x="0 3.893066 5.837891" y="-0.96875">0.0</tspan>
       </text>
      </g>
     </g>
    </g>
    <g id="xtick_7">
     <g id="line2d_13">
      <g>
       <use xlink:href="#m4ca937a428" x="408.120409" y="151.9572" style="stroke: #000000; stroke-width: 0.8"/>
      </g>
     </g>
     <g id="text_22">
      <!-- $\mathdefault{0.1}$ -->
      <g transform="translate(403.220409 163.967669)">
       <text>
        <tspan style="font: 7px 'Arial'" x="0 3.893066 5.837891" y="-0.96875">0.1</tspan>
       </text>
      </g>
     </g>
    </g>
    <g id="xtick_8">
     <g id="line2d_14">
      <g>
       <use xlink:href="#m4ca937a428" x="439.973095" y="151.9572" style="stroke: #000000; stroke-width: 0.8"/>
      </g>
     </g>
     <g id="text_23">
      <!-- $\mathdefault{0.2}$ -->
      <g transform="translate(435.073095 163.967669)">
       <text>
        <tspan style="font: 7px 'Arial'" x="0 3.893066 5.837891" y="-0.96875">0.2</tspan>
       </text>
      </g>
     </g>
    </g>
    <g id="xtick_9">
     <g id="line2d_15">
      <g>
       <use xlink:href="#m4ca937a428" x="471.825782" y="151.9572" style="stroke: #000000; stroke-width: 0.8"/>
      </g>
     </g>
     <g id="text_24">
      <!-- $\mathdefault{0.3}$ -->
      <g transform="translate(466.925782 163.967669)">
       <text>
        <tspan style="font: 7px 'Arial'" x="0 3.893066 5.837891" y="-0.96875">0.3</tspan>
       </text>
      </g>
     </g>
    </g>
    <g id="xtick_10">
     <g id="line2d_16">
      <g>
       <use xlink:href="#m4ca937a428" x="503.678469" y="151.9572" style="stroke: #000000; stroke-width: 0.8"/>
      </g>
     </g>
     <g id="text_25">
      <!-- $\mathdefault{0.4}$ -->
      <g transform="translate(498.778469 163.967669)">
       <text>
        <tspan style="font: 7px 'Arial'" x="0 3.893066 5.837891" y="-0.96875">0.4</tspan>
       </text>
      </g>
     </g>
    </g>
    <g id="text_26">
     <!-- $\Delta$ tail top-5 (SMA $-$ best RAG) -->
     <g transform="translate(391.440305 174.468919)">
      <text>
       <tspan style="font: 7px 'cmr10'" x="0" y="-0.90625">¢</tspan>
       <tspan style="font: 7px 'Arial'" x="5.831055 7.775879 9.720703 13.61377 15.168945 16.724121 18.668945 20.61377 24.506836 28.399902 30.730957 34.624023 36.568848 38.899902 43.568848 49.399902 54.068848 61.45166 63.396484 67.289551 71.182617 74.682617 76.627441 78.572266 83.627441 88.296387 93.741211" y="-0.90625"> tail top-5 (SMA  best RAG)</tspan>
       <tspan style="font: 7px 'cmsy10'" x="56.013672" y="-0.90625">¡</tspan>
      </text>
     </g>
    </g>
   </g>
   <g id="matplotlib.axis_4">
    <g id="ytick_7">
     <g id="line2d_17">
      <g>
       <use xlink:href="#mebaf5cd65e" x="372.783038" y="145.91477" style="stroke: #000000; stroke-width: 0.8"/>
      </g>
     </g>
     <g id="text_27">
      <text style="font: 6px 'Arial', 'Helvetica', 'DejaVu Sans', sans-serif; text-anchor: end" x="365.783038" y="148.062114" transform="rotate(-0 365.783038 148.062114)">Medicine</text>
     </g>
    </g>
    <g id="ytick_8">
     <g id="line2d_18">
      <g>
       <use xlink:href="#mebaf5cd65e" x="372.783038" y="115.702623" style="stroke: #000000; stroke-width: 0.8"/>
      </g>
     </g>
     <g id="text_28">
      <text style="font: 6px 'Arial', 'Helvetica', 'DejaVu Sans', sans-serif; text-anchor: end" x="365.783038" y="117.849966" transform="rotate(-0 365.783038 117.849966)">Genomics</text>
     </g>
    </g>
    <g id="ytick_9">
     <g id="line2d_19">
      <g>
       <use xlink:href="#mebaf5cd65e" x="372.783038" y="85.490475" style="stroke: #000000; stroke-width: 0.8"/>
      </g>
     </g>
     <g id="text_29">
      <text style="font: 6px 'Arial', 'Helvetica', 'DejaVu Sans', sans-serif; text-anchor: end" x="365.783038" y="87.637819" transform="rotate(-0 365.783038 87.637819)">Finance</text>
     </g>
    </g>
    <g id="ytick_10">
     <g id="line2d_20">
      <g>
       <use xlink:href="#mebaf5cd65e" x="372.783038" y="55.278327" style="stroke: #000000; stroke-width: 0.8"/>
      </g>
     </g>
     <g id="text_30">
      <text style="font: 6px 'Arial', 'Helvetica', 'DejaVu Sans', sans-serif; text-anchor: end" x="365.783038" y="57.462234" transform="rotate(-0 365.783038 57.462234)">Cyber</text>
     </g>
    </g>
    <g id="ytick_11">
     <g id="line2d_21">
      <g>
       <use xlink:href="#mebaf5cd65e" x="372.783038" y="25.06618" style="stroke: #000000; stroke-width: 0.8"/>
      </g>
     </g>
     <g id="text_31">
      <text style="font: 6px 'Arial', 'Helvetica', 'DejaVu Sans', sans-serif; text-anchor: end" x="365.783038" y="27.213523" transform="rotate(-0 365.783038 27.213523)">Legal</text>
     </g>
    </g>
   </g>
   <g id="LineCollection_1">
    <path d="M 465.646361 145.91477 
L 500.142821 145.91477 
" clip-path="url(#pe03db7edcd)" style="fill: none; stroke: #2e8aa6"/>
    <path d="M 408.120409 115.702623 
L 443.508744 115.702623 
" clip-path="url(#pe03db7edcd)" style="fill: none; stroke: #2e8aa6"/>
    <path d="M 411.656057 85.490475 
L 447.936267 85.490475 
" clip-path="url(#pe03db7edcd)" style="fill: none; stroke: #2e8aa6"/>
    <path d="M 378.847789 55.278327 
L 421.594095 55.278327 
" clip-path="url(#pe03db7edcd)" style="fill: none; stroke: #2e8aa6"/>
    <path d="M 384.230893 25.06618 
L 409.012284 25.06618 
" clip-path="url(#pe03db7edcd)" style="fill: none; stroke: #2e8aa6"/>
   </g>
   <g id="line2d_22">
    <defs>
     <path id="m57cb55dde4" d="M 0 2 
L 0 -2 
" style="stroke: #2e8aa6"/>
    </defs>
    <g clip-path="url(#pe03db7edcd)">
     <use xlink:href="#m57cb55dde4" x="465.646361" y="145.91477" style="fill: #2e8aa6; stroke: #2e8aa6"/>
     <use xlink:href="#m57cb55dde4" x="408.120409" y="115.702623" style="fill: #2e8aa6; stroke: #2e8aa6"/>
     <use xlink:href="#m57cb55dde4" x="411.656057" y="85.490475" style="fill: #2e8aa6; stroke: #2e8aa6"/>
     <use xlink:href="#m57cb55dde4" x="378.847789" y="55.278327" style="fill: #2e8aa6; stroke: #2e8aa6"/>
     <use xlink:href="#m57cb55dde4" x="384.230893" y="25.06618" style="fill: #2e8aa6; stroke: #2e8aa6"/>
    </g>
   </g>
   <g id="line2d_23">
    <g clip-path="url(#pe03db7edcd)">
     <use xlink:href="#m57cb55dde4" x="500.142821" y="145.91477" style="fill: #2e8aa6; stroke: #2e8aa6"/>
     <use xlink:href="#m57cb55dde4" x="443.508744" y="115.702623" style="fill: #2e8aa6; stroke: #2e8aa6"/>
     <use xlink:href="#m57cb55dde4" x="447.936267" y="85.490475" style="fill: #2e8aa6; stroke: #2e8aa6"/>
     <use xlink:href="#m57cb55dde4" x="421.594095" y="55.278327" style="fill: #2e8aa6; stroke: #2e8aa6"/>
     <use xlink:href="#m57cb55dde4" x="409.012284" y="25.06618" style="fill: #2e8aa6; stroke: #2e8aa6"/>
    </g>
   </g>
   <g id="line2d_24">
    <path d="M 376.267722 151.9572 
L 376.267722 19.02375 
" clip-path="url(#pe03db7edcd)" style="fill: none; stroke-dasharray: 2.22,0.96; stroke-dashoffset: 0; stroke: #9aa3ab; stroke-width: 0.6"/>
   </g>
   <g id="line2d_25">
    <defs>
     <path id="m29dc7dbf3e" d="M 0 2 
C 0.530406 2 1.03916 1.789267 1.414214 1.414214 
C 1.789267 1.03916 2 0.530406 2 0 
C 2 -0.530406 1.789267 -1.03916 1.414214 -1.414214 
C 1.03916 -1.789267 0.530406 -2 0 -2 
C -0.530406 -2 -1.03916 -1.789267 -1.414214 -1.414214 
C -1.789267 -1.03916 -2 -0.530406 -2 0 
C -2 0.530406 -1.789267 1.03916 -1.414214 1.414214 
C -1.03916 1.789267 -0.530406 2 0 2 
z
" style="stroke: #2e8aa6"/>
    </defs>
    <g clip-path="url(#pe03db7edcd)">
     <use xlink:href="#m29dc7dbf3e" x="482.432727" y="145.91477" style="fill: #2e8aa6; stroke: #2e8aa6"/>
     <use xlink:href="#m29dc7dbf3e" x="425.830502" y="115.702623" style="fill: #2e8aa6; stroke: #2e8aa6"/>
     <use xlink:href="#m29dc7dbf3e" x="429.366151" y="85.490475" style="fill: #2e8aa6; stroke: #2e8aa6"/>
     <use xlink:href="#m29dc7dbf3e" x="399.583888" y="55.278327" style="fill: #2e8aa6; stroke: #2e8aa6"/>
     <use xlink:href="#m29dc7dbf3e" x="396.621589" y="25.06618" style="fill: #2e8aa6; stroke: #2e8aa6"/>
    </g>
   </g>
   <g id="patch_44">
    <path d="M 372.783038 151.9572 
L 372.783038 19.02375 
" style="fill: none; stroke: #000000; stroke-width: 0.5; stroke-linejoin: miter; stroke-linecap: square"/>
   </g>
   <g id="patch_45">
    <path d="M 506.207572 151.9572 
L 506.207572 19.02375 
" style="fill: none; stroke: #000000; stroke-width: 0.5; stroke-linejoin: miter; stroke-linecap: square"/>
   </g>
   <g id="patch_46">
    <path d="M 372.783038 151.9572 
L 506.207572 151.9572 
" style="fill: none; stroke: #000000; stroke-width: 0.5; stroke-linejoin: miter; stroke-linecap: square"/>
   </g>
   <g id="patch_47">
    <path d="M 372.783038 19.02375 
L 506.207572 19.02375 
" style="fill: none; stroke: #000000; stroke-width: 0.5; stroke-linejoin: miter; stroke-linecap: square"/>
   </g>
   <g id="text_32">
    <text style="font: 8px 'Arial', 'Helvetica', 'DejaVu Sans', sans-serif; text-anchor: start" x="372.783038" y="13.02375" transform="rotate(-0 372.783038 13.02375)">b   Effect size, 95% CI</text>
   </g>
  </g>
 </g>
 <defs>
  <clipPath id="pf90476bb13">
   <rect x="34.569063" y="19.02375" width="293.533975" height="132.93345"/>
  </clipPath>
  <clipPath id="pe03db7edcd">
   <rect x="372.783038" y="19.02375" width="133.424534" height="132.93345"/>
  </clipPath>
 </defs>
</svg>
